%TF.GenerationSoftware,KiCad,Pcbnew,7.0.9*%
%TF.CreationDate,2025-04-10T13:05:33+02:00*%
%TF.ProjectId,CW,43572e6b-6963-4616-945f-706362585858,rev?*%
%TF.SameCoordinates,Original*%
%TF.FileFunction,Copper,L2,Bot*%
%TF.FilePolarity,Positive*%
%FSLAX46Y46*%
G04 Gerber Fmt 4.6, Leading zero omitted, Abs format (unit mm)*
G04 Created by KiCad (PCBNEW 7.0.9) date 2025-04-10 13:05:33*
%MOMM*%
%LPD*%
G01*
G04 APERTURE LIST*
%TA.AperFunction,ComponentPad*%
%ADD10C,2.000000*%
%TD*%
%TA.AperFunction,ComponentPad*%
%ADD11R,2.000000X2.000000*%
%TD*%
%TA.AperFunction,ComponentPad*%
%ADD12R,1.600000X1.600000*%
%TD*%
%TA.AperFunction,ComponentPad*%
%ADD13O,1.600000X1.600000*%
%TD*%
%TA.AperFunction,ComponentPad*%
%ADD14C,1.600000*%
%TD*%
%TA.AperFunction,ComponentPad*%
%ADD15O,1.200000X2.200000*%
%TD*%
%TA.AperFunction,ComponentPad*%
%ADD16O,2.200000X1.200000*%
%TD*%
%TA.AperFunction,ComponentPad*%
%ADD17R,1.800000X1.800000*%
%TD*%
%TA.AperFunction,ComponentPad*%
%ADD18C,1.800000*%
%TD*%
%TA.AperFunction,ComponentPad*%
%ADD19R,1.700000X1.700000*%
%TD*%
%TA.AperFunction,ComponentPad*%
%ADD20O,1.700000X1.700000*%
%TD*%
%TA.AperFunction,ComponentPad*%
%ADD21R,3.200000X2.000000*%
%TD*%
%TA.AperFunction,ViaPad*%
%ADD22C,0.800000*%
%TD*%
%TA.AperFunction,Conductor*%
%ADD23C,0.250000*%
%TD*%
G04 APERTURE END LIST*
D10*
%TO.P,SW1,1,1*%
%TO.N,Net-(A1-D10)*%
X124691000Y-118690000D03*
X131191000Y-118690000D03*
%TO.P,SW1,2,2*%
%TO.N,Net-(BZ1-+)*%
X124691000Y-123190000D03*
X131191000Y-123190000D03*
%TD*%
D11*
%TO.P,BZ1,1,-*%
%TO.N,Net-(A1-D9)*%
X172466000Y-87650000D03*
D10*
%TO.P,BZ1,2,+*%
%TO.N,Net-(BZ1-+)*%
X172466000Y-95250000D03*
%TD*%
D12*
%TO.P,A1,1,TX1*%
%TO.N,unconnected-(A1-TX1-Pad1)*%
X162306000Y-113030000D03*
D13*
%TO.P,A1,2,RX1*%
%TO.N,unconnected-(A1-RX1-Pad2)*%
X162306000Y-110490000D03*
%TO.P,A1,3,~{RESET}*%
%TO.N,unconnected-(A1-~{RESET}-Pad3)*%
X162306000Y-107950000D03*
%TO.P,A1,4,GND*%
%TO.N,Net-(BZ1-+)*%
X162306000Y-105410000D03*
%TO.P,A1,5,D2*%
%TO.N,Net-(A1-D2)*%
X162306000Y-102870000D03*
%TO.P,A1,6,D3*%
%TO.N,Net-(A1-D3)*%
X162306000Y-100330000D03*
%TO.P,A1,7,D4*%
%TO.N,Net-(A1-D4)*%
X162306000Y-97790000D03*
%TO.P,A1,8,D5*%
%TO.N,Net-(A1-D5)*%
X162306000Y-95250000D03*
%TO.P,A1,9,D6*%
%TO.N,Net-(A1-D6)*%
X162306000Y-92710000D03*
%TO.P,A1,10,D7*%
%TO.N,Net-(A1-D7)*%
X162306000Y-90170000D03*
%TO.P,A1,11,D8*%
%TO.N,Net-(A1-D8)*%
X162306000Y-87630000D03*
%TO.P,A1,12,D9*%
%TO.N,Net-(A1-D9)*%
X162306000Y-85090000D03*
%TO.P,A1,13,D10*%
%TO.N,Net-(A1-D10)*%
X162306000Y-82550000D03*
%TO.P,A1,14,MOSI*%
%TO.N,unconnected-(A1-MOSI-Pad14)*%
X162306000Y-80010000D03*
%TO.P,A1,15,MISO*%
%TO.N,unconnected-(A1-MISO-Pad15)*%
X162306000Y-77470000D03*
%TO.P,A1,16,SCK*%
%TO.N,unconnected-(A1-SCK-Pad16)*%
X147066000Y-77470000D03*
%TO.P,A1,17,3V3*%
%TO.N,unconnected-(A1-3V3-Pad17)*%
X147066000Y-80010000D03*
%TO.P,A1,18,AREF*%
%TO.N,unconnected-(A1-AREF-Pad18)*%
X147066000Y-82550000D03*
%TO.P,A1,19,A0*%
%TO.N,unconnected-(A1-A0-Pad19)*%
X147066000Y-85090000D03*
%TO.P,A1,20,A1*%
%TO.N,unconnected-(A1-A1-Pad20)*%
X147066000Y-87630000D03*
%TO.P,A1,21,A2*%
%TO.N,unconnected-(A1-A2-Pad21)*%
X147066000Y-90170000D03*
%TO.P,A1,22,A3*%
%TO.N,unconnected-(A1-A3-Pad22)*%
X147066000Y-92710000D03*
%TO.P,A1,23,SDA/A4*%
%TO.N,Net-(A1-SDA{slash}A4)*%
X147066000Y-95250000D03*
%TO.P,A1,24,SCL/A5*%
%TO.N,Net-(A1-SCL{slash}A5)*%
X147066000Y-97790000D03*
%TO.P,A1,25,A6*%
%TO.N,unconnected-(A1-A6-Pad25)*%
X147066000Y-100330000D03*
%TO.P,A1,26,A7*%
%TO.N,unconnected-(A1-A7-Pad26)*%
X147066000Y-102870000D03*
%TO.P,A1,27,+5V*%
%TO.N,Net-(A1-+5V)*%
X147066000Y-105410000D03*
%TO.P,A1,28,~{RESET}*%
%TO.N,unconnected-(A1-~{RESET}-Pad28)*%
X147066000Y-107950000D03*
%TO.P,A1,29,GND*%
%TO.N,Net-(BZ1-+)*%
X147066000Y-110490000D03*
%TO.P,A1,30,VIN*%
%TO.N,unconnected-(A1-VIN-Pad30)*%
X147066000Y-113030000D03*
%TD*%
D14*
%TO.P,R2,1*%
%TO.N,Net-(D1-A)*%
X175006000Y-115570000D03*
D13*
%TO.P,R2,2*%
%TO.N,Net-(A1-D8)*%
X175006000Y-102870000D03*
%TD*%
D15*
%TO.P,J2,R*%
%TO.N,Net-(A1-D6)*%
X177386000Y-80010000D03*
D16*
%TO.P,J2,S*%
%TO.N,Net-(BZ1-+)*%
X172386000Y-75010000D03*
D15*
%TO.P,J2,T*%
%TO.N,Net-(A1-D5)*%
X167386000Y-80010000D03*
%TD*%
D14*
%TO.P,R1,1*%
%TO.N,Net-(D2-A)*%
X167386000Y-115570000D03*
D13*
%TO.P,R1,2*%
%TO.N,Net-(A1-D7)*%
X167386000Y-102870000D03*
%TD*%
D17*
%TO.P,D1,1,K*%
%TO.N,Net-(BZ1-+)*%
X116586000Y-120650000D03*
D18*
%TO.P,D1,2,A*%
%TO.N,Net-(D1-A)*%
X119126000Y-120650000D03*
%TD*%
D19*
%TO.P,J1,1*%
%TO.N,N/C*%
X124206000Y-90170000D03*
D20*
%TO.P,J1,2*%
X126746000Y-90170000D03*
%TO.P,J1,3*%
X129286000Y-90170000D03*
%TO.P,J1,4*%
X131826000Y-90170000D03*
%TD*%
D11*
%TO.P,J3,A*%
%TO.N,Net-(A1-D3)*%
X128546000Y-80645000D03*
D10*
%TO.P,J3,B*%
%TO.N,Net-(A1-D2)*%
X128546000Y-75645000D03*
%TO.P,J3,C*%
%TO.N,Net-(BZ1-+)*%
X128546000Y-78145000D03*
D21*
%TO.P,J3,MP*%
%TO.N,N/C*%
X121046000Y-83745000D03*
X121046000Y-72545000D03*
D10*
%TO.P,J3,S1*%
%TO.N,Net-(BZ1-+)*%
X114046000Y-75645000D03*
%TO.P,J3,S2*%
%TO.N,Net-(A1-D4)*%
X114046000Y-80645000D03*
%TD*%
D17*
%TO.P,D2,1,K*%
%TO.N,Net-(BZ1-+)*%
X136906000Y-120650000D03*
D18*
%TO.P,D2,2,A*%
%TO.N,Net-(D2-A)*%
X139446000Y-120650000D03*
%TD*%
D22*
%TO.N,Net-(A1-D2)*%
X150876000Y-73660000D03*
%TO.N,Net-(A1-D3)*%
X145796000Y-73660000D03*
X157226000Y-95250000D03*
%TO.N,Net-(A1-D4)*%
X154686000Y-90170000D03*
%TO.N,Net-(A1-D7)*%
X167386000Y-95250000D03*
%TO.N,Net-(A1-D8)*%
X167386000Y-92710000D03*
%TD*%
D23*
%TO.N,Net-(BZ1-+)*%
X126046000Y-75645000D02*
X114046000Y-75645000D01*
X128546000Y-78145000D02*
X126046000Y-75645000D01*
%TO.N,Net-(A1-D2)*%
X152146000Y-74930000D02*
X159766000Y-82550000D01*
X152146000Y-74930000D02*
X150876000Y-73660000D01*
X159766000Y-100330000D02*
X162306000Y-102870000D01*
X159766000Y-82550000D02*
X159766000Y-100330000D01*
X128546000Y-75010000D02*
X128626000Y-74930000D01*
%TO.N,Net-(A1-D3)*%
X157226000Y-84074000D02*
X146812000Y-73660000D01*
X146812000Y-73660000D02*
X145796000Y-73660000D01*
X157226000Y-95250000D02*
X157226000Y-84074000D01*
%TO.N,Net-(A1-D4)*%
X149606000Y-92710000D02*
X152146000Y-90170000D01*
X114046000Y-87376000D02*
X143510000Y-116840000D01*
X148336000Y-116840000D02*
X149606000Y-115570000D01*
X149606000Y-115570000D02*
X149606000Y-92710000D01*
X114046000Y-80645000D02*
X114046000Y-87376000D01*
X143510000Y-116840000D02*
X148336000Y-116840000D01*
X152146000Y-90170000D02*
X154686000Y-90170000D01*
%TO.N,Net-(A1-D7)*%
X162306000Y-90170000D02*
X164846000Y-92710000D01*
X164846000Y-92710000D02*
X167386000Y-95250000D01*
%TO.N,Net-(A1-D8)*%
X162306000Y-87630000D02*
X167386000Y-92710000D01*
%TO.N,Net-(A1-D9)*%
X164866000Y-87650000D02*
X162306000Y-85090000D01*
X172466000Y-87650000D02*
X164866000Y-87650000D01*
%TD*%
M02*
