%TF.GenerationSoftware,KiCad,Pcbnew,7.0.9*%
%TF.CreationDate,2025-04-10T13:05:31+02:00*%
%TF.ProjectId,CW,43572e6b-6963-4616-945f-706362585858,rev?*%
%TF.SameCoordinates,Original*%
%TF.FileFunction,Drillmap*%
%TF.FilePolarity,Positive*%
%FSLAX45Y45*%
G04 Gerber Fmt 4.5, Leading zero omitted, Abs format (unit mm)*
G04 Created by KiCad (PCBNEW 7.0.9) date 2025-04-10 13:05:31*
%MOMM*%
%LPD*%
G01*
G04 APERTURE LIST*
%ADD10C,0.100000*%
%ADD11C,0.200000*%
%ADD12C,0.120000*%
G04 APERTURE END LIST*
D10*
X16934180Y-7045960D02*
X17543780Y-7045960D01*
X17566640Y-6985000D01*
X17602200Y-6985000D01*
X18008600Y-6985000D01*
X18008600Y-12319000D01*
X17500600Y-12827000D01*
X11658600Y-12827000D01*
X11150600Y-12319000D01*
X11150600Y-6985000D01*
X16911320Y-6985000D01*
X16934180Y-7045960D01*
D11*
D12*
X16678600Y-7191000D02*
X16798600Y-7311000D01*
X16798600Y-7191000D02*
X16678600Y-7311000D01*
X16678600Y-7441000D02*
X16798600Y-7561000D01*
X16798600Y-7441000D02*
X16678600Y-7561000D01*
X17178600Y-7941000D02*
X17298600Y-8061000D01*
X17298600Y-7941000D02*
X17178600Y-8061000D01*
X17678600Y-7191000D02*
X17798600Y-7311000D01*
X17798600Y-7191000D02*
X17678600Y-7311000D01*
X17678600Y-7441000D02*
X17798600Y-7561000D01*
X17798600Y-7441000D02*
X17678600Y-7561000D01*
D11*
X11406377Y-13143484D02*
X11406377Y-12943484D01*
X11406377Y-12943484D02*
X11453996Y-12943484D01*
X11453996Y-12943484D02*
X11482567Y-12953008D01*
X11482567Y-12953008D02*
X11501615Y-12972055D01*
X11501615Y-12972055D02*
X11511139Y-12991103D01*
X11511139Y-12991103D02*
X11520662Y-13029198D01*
X11520662Y-13029198D02*
X11520662Y-13057769D01*
X11520662Y-13057769D02*
X11511139Y-13095865D01*
X11511139Y-13095865D02*
X11501615Y-13114912D01*
X11501615Y-13114912D02*
X11482567Y-13133960D01*
X11482567Y-13133960D02*
X11453996Y-13143484D01*
X11453996Y-13143484D02*
X11406377Y-13143484D01*
X11606377Y-13143484D02*
X11606377Y-13010150D01*
X11606377Y-13048246D02*
X11615901Y-13029198D01*
X11615901Y-13029198D02*
X11625424Y-13019674D01*
X11625424Y-13019674D02*
X11644472Y-13010150D01*
X11644472Y-13010150D02*
X11663520Y-13010150D01*
X11730186Y-13143484D02*
X11730186Y-13010150D01*
X11730186Y-12943484D02*
X11720662Y-12953008D01*
X11720662Y-12953008D02*
X11730186Y-12962531D01*
X11730186Y-12962531D02*
X11739710Y-12953008D01*
X11739710Y-12953008D02*
X11730186Y-12943484D01*
X11730186Y-12943484D02*
X11730186Y-12962531D01*
X11853996Y-13143484D02*
X11834948Y-13133960D01*
X11834948Y-13133960D02*
X11825424Y-13114912D01*
X11825424Y-13114912D02*
X11825424Y-12943484D01*
X11958758Y-13143484D02*
X11939710Y-13133960D01*
X11939710Y-13133960D02*
X11930186Y-13114912D01*
X11930186Y-13114912D02*
X11930186Y-12943484D01*
X12187329Y-13143484D02*
X12187329Y-12943484D01*
X12187329Y-12943484D02*
X12253996Y-13086341D01*
X12253996Y-13086341D02*
X12320662Y-12943484D01*
X12320662Y-12943484D02*
X12320662Y-13143484D01*
X12501615Y-13143484D02*
X12501615Y-13038722D01*
X12501615Y-13038722D02*
X12492091Y-13019674D01*
X12492091Y-13019674D02*
X12473043Y-13010150D01*
X12473043Y-13010150D02*
X12434948Y-13010150D01*
X12434948Y-13010150D02*
X12415901Y-13019674D01*
X12501615Y-13133960D02*
X12482567Y-13143484D01*
X12482567Y-13143484D02*
X12434948Y-13143484D01*
X12434948Y-13143484D02*
X12415901Y-13133960D01*
X12415901Y-13133960D02*
X12406377Y-13114912D01*
X12406377Y-13114912D02*
X12406377Y-13095865D01*
X12406377Y-13095865D02*
X12415901Y-13076817D01*
X12415901Y-13076817D02*
X12434948Y-13067293D01*
X12434948Y-13067293D02*
X12482567Y-13067293D01*
X12482567Y-13067293D02*
X12501615Y-13057769D01*
X12596853Y-13010150D02*
X12596853Y-13210150D01*
X12596853Y-13019674D02*
X12615901Y-13010150D01*
X12615901Y-13010150D02*
X12653996Y-13010150D01*
X12653996Y-13010150D02*
X12673043Y-13019674D01*
X12673043Y-13019674D02*
X12682567Y-13029198D01*
X12682567Y-13029198D02*
X12692091Y-13048246D01*
X12692091Y-13048246D02*
X12692091Y-13105388D01*
X12692091Y-13105388D02*
X12682567Y-13124436D01*
X12682567Y-13124436D02*
X12673043Y-13133960D01*
X12673043Y-13133960D02*
X12653996Y-13143484D01*
X12653996Y-13143484D02*
X12615901Y-13143484D01*
X12615901Y-13143484D02*
X12596853Y-13133960D01*
X12777805Y-13124436D02*
X12787329Y-13133960D01*
X12787329Y-13133960D02*
X12777805Y-13143484D01*
X12777805Y-13143484D02*
X12768282Y-13133960D01*
X12768282Y-13133960D02*
X12777805Y-13124436D01*
X12777805Y-13124436D02*
X12777805Y-13143484D01*
X12777805Y-13019674D02*
X12787329Y-13029198D01*
X12787329Y-13029198D02*
X12777805Y-13038722D01*
X12777805Y-13038722D02*
X12768282Y-13029198D01*
X12768282Y-13029198D02*
X12777805Y-13019674D01*
X12777805Y-13019674D02*
X12777805Y-13038722D01*
D12*
X11025600Y-13412000D02*
X11145600Y-13532000D01*
X11145600Y-13412000D02*
X11025600Y-13532000D01*
D11*
X11511139Y-13563484D02*
X11396853Y-13563484D01*
X11453996Y-13563484D02*
X11453996Y-13363484D01*
X11453996Y-13363484D02*
X11434948Y-13392055D01*
X11434948Y-13392055D02*
X11415901Y-13411103D01*
X11415901Y-13411103D02*
X11396853Y-13420627D01*
X11596853Y-13544436D02*
X11606377Y-13553960D01*
X11606377Y-13553960D02*
X11596853Y-13563484D01*
X11596853Y-13563484D02*
X11587329Y-13553960D01*
X11587329Y-13553960D02*
X11596853Y-13544436D01*
X11596853Y-13544436D02*
X11596853Y-13563484D01*
X11682567Y-13382531D02*
X11692091Y-13373008D01*
X11692091Y-13373008D02*
X11711139Y-13363484D01*
X11711139Y-13363484D02*
X11758758Y-13363484D01*
X11758758Y-13363484D02*
X11777805Y-13373008D01*
X11777805Y-13373008D02*
X11787329Y-13382531D01*
X11787329Y-13382531D02*
X11796853Y-13401579D01*
X11796853Y-13401579D02*
X11796853Y-13420627D01*
X11796853Y-13420627D02*
X11787329Y-13449198D01*
X11787329Y-13449198D02*
X11673043Y-13563484D01*
X11673043Y-13563484D02*
X11796853Y-13563484D01*
X11920662Y-13363484D02*
X11939710Y-13363484D01*
X11939710Y-13363484D02*
X11958758Y-13373008D01*
X11958758Y-13373008D02*
X11968282Y-13382531D01*
X11968282Y-13382531D02*
X11977805Y-13401579D01*
X11977805Y-13401579D02*
X11987329Y-13439674D01*
X11987329Y-13439674D02*
X11987329Y-13487293D01*
X11987329Y-13487293D02*
X11977805Y-13525388D01*
X11977805Y-13525388D02*
X11968282Y-13544436D01*
X11968282Y-13544436D02*
X11958758Y-13553960D01*
X11958758Y-13553960D02*
X11939710Y-13563484D01*
X11939710Y-13563484D02*
X11920662Y-13563484D01*
X11920662Y-13563484D02*
X11901615Y-13553960D01*
X11901615Y-13553960D02*
X11892091Y-13544436D01*
X11892091Y-13544436D02*
X11882567Y-13525388D01*
X11882567Y-13525388D02*
X11873043Y-13487293D01*
X11873043Y-13487293D02*
X11873043Y-13439674D01*
X11873043Y-13439674D02*
X11882567Y-13401579D01*
X11882567Y-13401579D02*
X11892091Y-13382531D01*
X11892091Y-13382531D02*
X11901615Y-13373008D01*
X11901615Y-13373008D02*
X11920662Y-13363484D01*
X12111139Y-13363484D02*
X12130186Y-13363484D01*
X12130186Y-13363484D02*
X12149234Y-13373008D01*
X12149234Y-13373008D02*
X12158758Y-13382531D01*
X12158758Y-13382531D02*
X12168282Y-13401579D01*
X12168282Y-13401579D02*
X12177805Y-13439674D01*
X12177805Y-13439674D02*
X12177805Y-13487293D01*
X12177805Y-13487293D02*
X12168282Y-13525388D01*
X12168282Y-13525388D02*
X12158758Y-13544436D01*
X12158758Y-13544436D02*
X12149234Y-13553960D01*
X12149234Y-13553960D02*
X12130186Y-13563484D01*
X12130186Y-13563484D02*
X12111139Y-13563484D01*
X12111139Y-13563484D02*
X12092091Y-13553960D01*
X12092091Y-13553960D02*
X12082567Y-13544436D01*
X12082567Y-13544436D02*
X12073043Y-13525388D01*
X12073043Y-13525388D02*
X12063520Y-13487293D01*
X12063520Y-13487293D02*
X12063520Y-13439674D01*
X12063520Y-13439674D02*
X12073043Y-13401579D01*
X12073043Y-13401579D02*
X12082567Y-13382531D01*
X12082567Y-13382531D02*
X12092091Y-13373008D01*
X12092091Y-13373008D02*
X12111139Y-13363484D01*
X12263520Y-13563484D02*
X12263520Y-13430150D01*
X12263520Y-13449198D02*
X12273043Y-13439674D01*
X12273043Y-13439674D02*
X12292091Y-13430150D01*
X12292091Y-13430150D02*
X12320663Y-13430150D01*
X12320663Y-13430150D02*
X12339710Y-13439674D01*
X12339710Y-13439674D02*
X12349234Y-13458722D01*
X12349234Y-13458722D02*
X12349234Y-13563484D01*
X12349234Y-13458722D02*
X12358758Y-13439674D01*
X12358758Y-13439674D02*
X12377805Y-13430150D01*
X12377805Y-13430150D02*
X12406377Y-13430150D01*
X12406377Y-13430150D02*
X12425424Y-13439674D01*
X12425424Y-13439674D02*
X12434948Y-13458722D01*
X12434948Y-13458722D02*
X12434948Y-13563484D01*
X12530186Y-13563484D02*
X12530186Y-13430150D01*
X12530186Y-13449198D02*
X12539710Y-13439674D01*
X12539710Y-13439674D02*
X12558758Y-13430150D01*
X12558758Y-13430150D02*
X12587329Y-13430150D01*
X12587329Y-13430150D02*
X12606377Y-13439674D01*
X12606377Y-13439674D02*
X12615901Y-13458722D01*
X12615901Y-13458722D02*
X12615901Y-13563484D01*
X12615901Y-13458722D02*
X12625424Y-13439674D01*
X12625424Y-13439674D02*
X12644472Y-13430150D01*
X12644472Y-13430150D02*
X12673043Y-13430150D01*
X12673043Y-13430150D02*
X12692091Y-13439674D01*
X12692091Y-13439674D02*
X12701615Y-13458722D01*
X12701615Y-13458722D02*
X12701615Y-13563484D01*
X13092091Y-13353960D02*
X12920663Y-13611103D01*
X13349234Y-13363484D02*
X13368282Y-13363484D01*
X13368282Y-13363484D02*
X13387329Y-13373008D01*
X13387329Y-13373008D02*
X13396853Y-13382531D01*
X13396853Y-13382531D02*
X13406377Y-13401579D01*
X13406377Y-13401579D02*
X13415901Y-13439674D01*
X13415901Y-13439674D02*
X13415901Y-13487293D01*
X13415901Y-13487293D02*
X13406377Y-13525388D01*
X13406377Y-13525388D02*
X13396853Y-13544436D01*
X13396853Y-13544436D02*
X13387329Y-13553960D01*
X13387329Y-13553960D02*
X13368282Y-13563484D01*
X13368282Y-13563484D02*
X13349234Y-13563484D01*
X13349234Y-13563484D02*
X13330186Y-13553960D01*
X13330186Y-13553960D02*
X13320663Y-13544436D01*
X13320663Y-13544436D02*
X13311139Y-13525388D01*
X13311139Y-13525388D02*
X13301615Y-13487293D01*
X13301615Y-13487293D02*
X13301615Y-13439674D01*
X13301615Y-13439674D02*
X13311139Y-13401579D01*
X13311139Y-13401579D02*
X13320663Y-13382531D01*
X13320663Y-13382531D02*
X13330186Y-13373008D01*
X13330186Y-13373008D02*
X13349234Y-13363484D01*
X13501615Y-13544436D02*
X13511139Y-13553960D01*
X13511139Y-13553960D02*
X13501615Y-13563484D01*
X13501615Y-13563484D02*
X13492091Y-13553960D01*
X13492091Y-13553960D02*
X13501615Y-13544436D01*
X13501615Y-13544436D02*
X13501615Y-13563484D01*
X13634948Y-13363484D02*
X13653996Y-13363484D01*
X13653996Y-13363484D02*
X13673044Y-13373008D01*
X13673044Y-13373008D02*
X13682567Y-13382531D01*
X13682567Y-13382531D02*
X13692091Y-13401579D01*
X13692091Y-13401579D02*
X13701615Y-13439674D01*
X13701615Y-13439674D02*
X13701615Y-13487293D01*
X13701615Y-13487293D02*
X13692091Y-13525388D01*
X13692091Y-13525388D02*
X13682567Y-13544436D01*
X13682567Y-13544436D02*
X13673044Y-13553960D01*
X13673044Y-13553960D02*
X13653996Y-13563484D01*
X13653996Y-13563484D02*
X13634948Y-13563484D01*
X13634948Y-13563484D02*
X13615901Y-13553960D01*
X13615901Y-13553960D02*
X13606377Y-13544436D01*
X13606377Y-13544436D02*
X13596853Y-13525388D01*
X13596853Y-13525388D02*
X13587329Y-13487293D01*
X13587329Y-13487293D02*
X13587329Y-13439674D01*
X13587329Y-13439674D02*
X13596853Y-13401579D01*
X13596853Y-13401579D02*
X13606377Y-13382531D01*
X13606377Y-13382531D02*
X13615901Y-13373008D01*
X13615901Y-13373008D02*
X13634948Y-13363484D01*
X13873044Y-13430150D02*
X13873044Y-13563484D01*
X13825425Y-13353960D02*
X13777806Y-13496817D01*
X13777806Y-13496817D02*
X13901615Y-13496817D01*
X13958758Y-13363484D02*
X14092091Y-13363484D01*
X14092091Y-13363484D02*
X14006377Y-13563484D01*
X14158758Y-13382531D02*
X14168282Y-13373008D01*
X14168282Y-13373008D02*
X14187329Y-13363484D01*
X14187329Y-13363484D02*
X14234948Y-13363484D01*
X14234948Y-13363484D02*
X14253996Y-13373008D01*
X14253996Y-13373008D02*
X14263520Y-13382531D01*
X14263520Y-13382531D02*
X14273044Y-13401579D01*
X14273044Y-13401579D02*
X14273044Y-13420627D01*
X14273044Y-13420627D02*
X14263520Y-13449198D01*
X14263520Y-13449198D02*
X14149234Y-13563484D01*
X14149234Y-13563484D02*
X14273044Y-13563484D01*
X14349234Y-13363484D02*
X14349234Y-13401579D01*
X14425425Y-13363484D02*
X14425425Y-13401579D01*
X14720663Y-13639674D02*
X14711139Y-13630150D01*
X14711139Y-13630150D02*
X14692091Y-13601579D01*
X14692091Y-13601579D02*
X14682568Y-13582531D01*
X14682568Y-13582531D02*
X14673044Y-13553960D01*
X14673044Y-13553960D02*
X14663520Y-13506341D01*
X14663520Y-13506341D02*
X14663520Y-13468246D01*
X14663520Y-13468246D02*
X14673044Y-13420627D01*
X14673044Y-13420627D02*
X14682568Y-13392055D01*
X14682568Y-13392055D02*
X14692091Y-13373008D01*
X14692091Y-13373008D02*
X14711139Y-13344436D01*
X14711139Y-13344436D02*
X14720663Y-13334912D01*
X14892091Y-13363484D02*
X14796853Y-13363484D01*
X14796853Y-13363484D02*
X14787329Y-13458722D01*
X14787329Y-13458722D02*
X14796853Y-13449198D01*
X14796853Y-13449198D02*
X14815901Y-13439674D01*
X14815901Y-13439674D02*
X14863520Y-13439674D01*
X14863520Y-13439674D02*
X14882568Y-13449198D01*
X14882568Y-13449198D02*
X14892091Y-13458722D01*
X14892091Y-13458722D02*
X14901615Y-13477769D01*
X14901615Y-13477769D02*
X14901615Y-13525388D01*
X14901615Y-13525388D02*
X14892091Y-13544436D01*
X14892091Y-13544436D02*
X14882568Y-13553960D01*
X14882568Y-13553960D02*
X14863520Y-13563484D01*
X14863520Y-13563484D02*
X14815901Y-13563484D01*
X14815901Y-13563484D02*
X14796853Y-13553960D01*
X14796853Y-13553960D02*
X14787329Y-13544436D01*
X15139710Y-13563484D02*
X15139710Y-13363484D01*
X15225425Y-13563484D02*
X15225425Y-13458722D01*
X15225425Y-13458722D02*
X15215901Y-13439674D01*
X15215901Y-13439674D02*
X15196853Y-13430150D01*
X15196853Y-13430150D02*
X15168282Y-13430150D01*
X15168282Y-13430150D02*
X15149234Y-13439674D01*
X15149234Y-13439674D02*
X15139710Y-13449198D01*
X15349234Y-13563484D02*
X15330187Y-13553960D01*
X15330187Y-13553960D02*
X15320663Y-13544436D01*
X15320663Y-13544436D02*
X15311139Y-13525388D01*
X15311139Y-13525388D02*
X15311139Y-13468246D01*
X15311139Y-13468246D02*
X15320663Y-13449198D01*
X15320663Y-13449198D02*
X15330187Y-13439674D01*
X15330187Y-13439674D02*
X15349234Y-13430150D01*
X15349234Y-13430150D02*
X15377806Y-13430150D01*
X15377806Y-13430150D02*
X15396853Y-13439674D01*
X15396853Y-13439674D02*
X15406377Y-13449198D01*
X15406377Y-13449198D02*
X15415901Y-13468246D01*
X15415901Y-13468246D02*
X15415901Y-13525388D01*
X15415901Y-13525388D02*
X15406377Y-13544436D01*
X15406377Y-13544436D02*
X15396853Y-13553960D01*
X15396853Y-13553960D02*
X15377806Y-13563484D01*
X15377806Y-13563484D02*
X15349234Y-13563484D01*
X15530187Y-13563484D02*
X15511139Y-13553960D01*
X15511139Y-13553960D02*
X15501615Y-13534912D01*
X15501615Y-13534912D02*
X15501615Y-13363484D01*
X15682568Y-13553960D02*
X15663520Y-13563484D01*
X15663520Y-13563484D02*
X15625425Y-13563484D01*
X15625425Y-13563484D02*
X15606377Y-13553960D01*
X15606377Y-13553960D02*
X15596853Y-13534912D01*
X15596853Y-13534912D02*
X15596853Y-13458722D01*
X15596853Y-13458722D02*
X15606377Y-13439674D01*
X15606377Y-13439674D02*
X15625425Y-13430150D01*
X15625425Y-13430150D02*
X15663520Y-13430150D01*
X15663520Y-13430150D02*
X15682568Y-13439674D01*
X15682568Y-13439674D02*
X15692091Y-13458722D01*
X15692091Y-13458722D02*
X15692091Y-13477769D01*
X15692091Y-13477769D02*
X15596853Y-13496817D01*
X15768282Y-13553960D02*
X15787330Y-13563484D01*
X15787330Y-13563484D02*
X15825425Y-13563484D01*
X15825425Y-13563484D02*
X15844472Y-13553960D01*
X15844472Y-13553960D02*
X15853996Y-13534912D01*
X15853996Y-13534912D02*
X15853996Y-13525388D01*
X15853996Y-13525388D02*
X15844472Y-13506341D01*
X15844472Y-13506341D02*
X15825425Y-13496817D01*
X15825425Y-13496817D02*
X15796853Y-13496817D01*
X15796853Y-13496817D02*
X15777806Y-13487293D01*
X15777806Y-13487293D02*
X15768282Y-13468246D01*
X15768282Y-13468246D02*
X15768282Y-13458722D01*
X15768282Y-13458722D02*
X15777806Y-13439674D01*
X15777806Y-13439674D02*
X15796853Y-13430150D01*
X15796853Y-13430150D02*
X15825425Y-13430150D01*
X15825425Y-13430150D02*
X15844472Y-13439674D01*
X15920663Y-13639674D02*
X15930187Y-13630150D01*
X15930187Y-13630150D02*
X15949234Y-13601579D01*
X15949234Y-13601579D02*
X15958758Y-13582531D01*
X15958758Y-13582531D02*
X15968282Y-13553960D01*
X15968282Y-13553960D02*
X15977806Y-13506341D01*
X15977806Y-13506341D02*
X15977806Y-13468246D01*
X15977806Y-13468246D02*
X15968282Y-13420627D01*
X15968282Y-13420627D02*
X15958758Y-13392055D01*
X15958758Y-13392055D02*
X15949234Y-13373008D01*
X15949234Y-13373008D02*
X15930187Y-13344436D01*
X15930187Y-13344436D02*
X15920663Y-13334912D01*
X16282568Y-13639674D02*
X16273044Y-13630150D01*
X16273044Y-13630150D02*
X16253996Y-13601579D01*
X16253996Y-13601579D02*
X16244472Y-13582531D01*
X16244472Y-13582531D02*
X16234949Y-13553960D01*
X16234949Y-13553960D02*
X16225425Y-13506341D01*
X16225425Y-13506341D02*
X16225425Y-13468246D01*
X16225425Y-13468246D02*
X16234949Y-13420627D01*
X16234949Y-13420627D02*
X16244472Y-13392055D01*
X16244472Y-13392055D02*
X16253996Y-13373008D01*
X16253996Y-13373008D02*
X16273044Y-13344436D01*
X16273044Y-13344436D02*
X16282568Y-13334912D01*
X16358758Y-13430150D02*
X16358758Y-13563484D01*
X16358758Y-13449198D02*
X16368282Y-13439674D01*
X16368282Y-13439674D02*
X16387330Y-13430150D01*
X16387330Y-13430150D02*
X16415901Y-13430150D01*
X16415901Y-13430150D02*
X16434949Y-13439674D01*
X16434949Y-13439674D02*
X16444472Y-13458722D01*
X16444472Y-13458722D02*
X16444472Y-13563484D01*
X16568282Y-13563484D02*
X16549234Y-13553960D01*
X16549234Y-13553960D02*
X16539711Y-13544436D01*
X16539711Y-13544436D02*
X16530187Y-13525388D01*
X16530187Y-13525388D02*
X16530187Y-13468246D01*
X16530187Y-13468246D02*
X16539711Y-13449198D01*
X16539711Y-13449198D02*
X16549234Y-13439674D01*
X16549234Y-13439674D02*
X16568282Y-13430150D01*
X16568282Y-13430150D02*
X16596853Y-13430150D01*
X16596853Y-13430150D02*
X16615901Y-13439674D01*
X16615901Y-13439674D02*
X16625425Y-13449198D01*
X16625425Y-13449198D02*
X16634949Y-13468246D01*
X16634949Y-13468246D02*
X16634949Y-13525388D01*
X16634949Y-13525388D02*
X16625425Y-13544436D01*
X16625425Y-13544436D02*
X16615901Y-13553960D01*
X16615901Y-13553960D02*
X16596853Y-13563484D01*
X16596853Y-13563484D02*
X16568282Y-13563484D01*
X16692092Y-13430150D02*
X16768282Y-13430150D01*
X16720663Y-13363484D02*
X16720663Y-13534912D01*
X16720663Y-13534912D02*
X16730187Y-13553960D01*
X16730187Y-13553960D02*
X16749234Y-13563484D01*
X16749234Y-13563484D02*
X16768282Y-13563484D01*
X16987330Y-13430150D02*
X16987330Y-13630150D01*
X16987330Y-13439674D02*
X17006377Y-13430150D01*
X17006377Y-13430150D02*
X17044473Y-13430150D01*
X17044473Y-13430150D02*
X17063520Y-13439674D01*
X17063520Y-13439674D02*
X17073044Y-13449198D01*
X17073044Y-13449198D02*
X17082568Y-13468246D01*
X17082568Y-13468246D02*
X17082568Y-13525388D01*
X17082568Y-13525388D02*
X17073044Y-13544436D01*
X17073044Y-13544436D02*
X17063520Y-13553960D01*
X17063520Y-13553960D02*
X17044473Y-13563484D01*
X17044473Y-13563484D02*
X17006377Y-13563484D01*
X17006377Y-13563484D02*
X16987330Y-13553960D01*
X17196854Y-13563484D02*
X17177806Y-13553960D01*
X17177806Y-13553960D02*
X17168282Y-13534912D01*
X17168282Y-13534912D02*
X17168282Y-13363484D01*
X17358758Y-13563484D02*
X17358758Y-13458722D01*
X17358758Y-13458722D02*
X17349235Y-13439674D01*
X17349235Y-13439674D02*
X17330187Y-13430150D01*
X17330187Y-13430150D02*
X17292092Y-13430150D01*
X17292092Y-13430150D02*
X17273044Y-13439674D01*
X17358758Y-13553960D02*
X17339711Y-13563484D01*
X17339711Y-13563484D02*
X17292092Y-13563484D01*
X17292092Y-13563484D02*
X17273044Y-13553960D01*
X17273044Y-13553960D02*
X17263520Y-13534912D01*
X17263520Y-13534912D02*
X17263520Y-13515865D01*
X17263520Y-13515865D02*
X17273044Y-13496817D01*
X17273044Y-13496817D02*
X17292092Y-13487293D01*
X17292092Y-13487293D02*
X17339711Y-13487293D01*
X17339711Y-13487293D02*
X17358758Y-13477769D01*
X17425425Y-13430150D02*
X17501615Y-13430150D01*
X17453996Y-13363484D02*
X17453996Y-13534912D01*
X17453996Y-13534912D02*
X17463520Y-13553960D01*
X17463520Y-13553960D02*
X17482568Y-13563484D01*
X17482568Y-13563484D02*
X17501615Y-13563484D01*
X17644473Y-13553960D02*
X17625425Y-13563484D01*
X17625425Y-13563484D02*
X17587330Y-13563484D01*
X17587330Y-13563484D02*
X17568282Y-13553960D01*
X17568282Y-13553960D02*
X17558758Y-13534912D01*
X17558758Y-13534912D02*
X17558758Y-13458722D01*
X17558758Y-13458722D02*
X17568282Y-13439674D01*
X17568282Y-13439674D02*
X17587330Y-13430150D01*
X17587330Y-13430150D02*
X17625425Y-13430150D01*
X17625425Y-13430150D02*
X17644473Y-13439674D01*
X17644473Y-13439674D02*
X17653996Y-13458722D01*
X17653996Y-13458722D02*
X17653996Y-13477769D01*
X17653996Y-13477769D02*
X17558758Y-13496817D01*
X17825425Y-13563484D02*
X17825425Y-13363484D01*
X17825425Y-13553960D02*
X17806377Y-13563484D01*
X17806377Y-13563484D02*
X17768282Y-13563484D01*
X17768282Y-13563484D02*
X17749235Y-13553960D01*
X17749235Y-13553960D02*
X17739711Y-13544436D01*
X17739711Y-13544436D02*
X17730187Y-13525388D01*
X17730187Y-13525388D02*
X17730187Y-13468246D01*
X17730187Y-13468246D02*
X17739711Y-13449198D01*
X17739711Y-13449198D02*
X17749235Y-13439674D01*
X17749235Y-13439674D02*
X17768282Y-13430150D01*
X17768282Y-13430150D02*
X17806377Y-13430150D01*
X17806377Y-13430150D02*
X17825425Y-13439674D01*
X17901616Y-13639674D02*
X17911139Y-13630150D01*
X17911139Y-13630150D02*
X17930187Y-13601579D01*
X17930187Y-13601579D02*
X17939711Y-13582531D01*
X17939711Y-13582531D02*
X17949235Y-13553960D01*
X17949235Y-13553960D02*
X17958758Y-13506341D01*
X17958758Y-13506341D02*
X17958758Y-13468246D01*
X17958758Y-13468246D02*
X17949235Y-13420627D01*
X17949235Y-13420627D02*
X17939711Y-13392055D01*
X17939711Y-13392055D02*
X17930187Y-13373008D01*
X17930187Y-13373008D02*
X17911139Y-13344436D01*
X17911139Y-13344436D02*
X17901616Y-13334912D01*
M02*
