%TF.GenerationSoftware,KiCad,Pcbnew,7.0.9*%
%TF.CreationDate,2025-04-10T13:05:31+02:00*%
%TF.ProjectId,CW,43572e6b-6963-4616-945f-706362585858,rev?*%
%TF.SameCoordinates,Original*%
%TF.FileFunction,Drillmap*%
%TF.FilePolarity,Positive*%
%FSLAX45Y45*%
G04 Gerber Fmt 4.5, Leading zero omitted, Abs format (unit mm)*
G04 Created by KiCad (PCBNEW 7.0.9) date 2025-04-10 13:05:31*
%MOMM*%
%LPD*%
G01*
G04 APERTURE LIST*
%ADD10C,0.100000*%
%ADD11C,0.200000*%
%ADD12C,0.110000*%
%ADD13C,0.150000*%
G04 APERTURE END LIST*
D10*
X16934180Y-7045960D02*
X17543780Y-7045960D01*
X17566640Y-6985000D01*
X17602200Y-6985000D01*
X18008600Y-6985000D01*
X18008600Y-12319000D01*
X17500600Y-12827000D01*
X11658600Y-12827000D01*
X11150600Y-12319000D01*
X11150600Y-6985000D01*
X16911320Y-6985000D01*
X16934180Y-7045960D01*
D11*
D10*
X14559600Y-7346000D02*
X14599600Y-7386000D01*
X14599600Y-7346000D02*
X14559600Y-7386000D01*
X15067600Y-7346000D02*
X15107600Y-7386000D01*
X15107600Y-7346000D02*
X15067600Y-7386000D01*
X15448600Y-8997000D02*
X15488600Y-9037000D01*
X15488600Y-8997000D02*
X15448600Y-9037000D01*
X15702600Y-9505000D02*
X15742600Y-9545000D01*
X15742600Y-9505000D02*
X15702600Y-9545000D01*
X16718600Y-9251000D02*
X16758600Y-9291000D01*
X16758600Y-9251000D02*
X16718600Y-9291000D01*
X16718600Y-9505000D02*
X16758600Y-9545000D01*
X16758600Y-9505000D02*
X16718600Y-9545000D01*
X16758600Y-8001000D02*
G75*
G03*
X16758600Y-8001000I-20000J0D01*
G01*
X16718600Y-7951000D02*
X16718600Y-8051000D01*
X16718600Y-8051000D02*
G75*
G03*
X16758600Y-8051000I20000J0D01*
G01*
X16758600Y-8051000D02*
X16758600Y-7951000D01*
X16758600Y-7951000D02*
G75*
G03*
X16718600Y-7951000I-20000J0D01*
G01*
X17258600Y-7501000D02*
G75*
G03*
X17258600Y-7501000I-20000J0D01*
G01*
X17288600Y-7481000D02*
X17188600Y-7481000D01*
X17188600Y-7481000D02*
G75*
G03*
X17188600Y-7521000I0J-20000D01*
G01*
X17188600Y-7521000D02*
X17288600Y-7521000D01*
X17288600Y-7521000D02*
G75*
G03*
X17288600Y-7481000I0J20000D01*
G01*
X17758600Y-8001000D02*
G75*
G03*
X17758600Y-8001000I-20000J0D01*
G01*
X17758600Y-8051000D02*
X17758600Y-7951000D01*
X17758600Y-7951000D02*
G75*
G03*
X17718600Y-7951000I-20000J0D01*
G01*
X17718600Y-7951000D02*
X17718600Y-8051000D01*
X17718600Y-8051000D02*
G75*
G03*
X17758600Y-8051000I20000J0D01*
G01*
X16738600Y-10247000D02*
X16738600Y-10327000D01*
X16698600Y-10287000D02*
X16778600Y-10287000D01*
X16738600Y-11517000D02*
X16738600Y-11597000D01*
X16698600Y-11557000D02*
X16778600Y-11557000D01*
X17500600Y-10247000D02*
X17500600Y-10327000D01*
X17460600Y-10287000D02*
X17540600Y-10287000D01*
X17500600Y-11517000D02*
X17500600Y-11597000D01*
X17460600Y-11557000D02*
X17540600Y-11557000D01*
X11690420Y-12096820D02*
X11690420Y-12033180D01*
X11626780Y-12033180D01*
X11626780Y-12096820D01*
X11690420Y-12096820D01*
X11944420Y-12096820D02*
X11944420Y-12033180D01*
X11880780Y-12033180D01*
X11880780Y-12096820D01*
X11944420Y-12096820D01*
X13722420Y-12096820D02*
X13722420Y-12033180D01*
X13658780Y-12033180D01*
X13658780Y-12096820D01*
X13722420Y-12096820D01*
X13976420Y-12096820D02*
X13976420Y-12033180D01*
X13912780Y-12033180D01*
X13912780Y-12096820D01*
X13976420Y-12096820D01*
X11404600Y-7614500D02*
X11454600Y-7564500D01*
X11404600Y-7514500D01*
X11354600Y-7564500D01*
X11404600Y-7614500D01*
X11404600Y-8114500D02*
X11454600Y-8064500D01*
X11404600Y-8014500D01*
X11354600Y-8064500D01*
X11404600Y-8114500D01*
X12420600Y-9067000D02*
X12470600Y-9017000D01*
X12420600Y-8967000D01*
X12370600Y-9017000D01*
X12420600Y-9067000D01*
X12674600Y-9067000D02*
X12724600Y-9017000D01*
X12674600Y-8967000D01*
X12624600Y-9017000D01*
X12674600Y-9067000D01*
X12854600Y-7614500D02*
X12904600Y-7564500D01*
X12854600Y-7514500D01*
X12804600Y-7564500D01*
X12854600Y-7614500D01*
X12854600Y-7864500D02*
X12904600Y-7814500D01*
X12854600Y-7764500D01*
X12804600Y-7814500D01*
X12854600Y-7864500D01*
X12854600Y-8114500D02*
X12904600Y-8064500D01*
X12854600Y-8014500D01*
X12804600Y-8064500D01*
X12854600Y-8114500D01*
X12928600Y-9067000D02*
X12978600Y-9017000D01*
X12928600Y-8967000D01*
X12878600Y-9017000D01*
X12928600Y-9067000D01*
X13182600Y-9067000D02*
X13232600Y-9017000D01*
X13182600Y-8967000D01*
X13132600Y-9017000D01*
X13182600Y-9067000D01*
X14706600Y-7797000D02*
X14756600Y-7747000D01*
X14706600Y-7697000D01*
X14656600Y-7747000D01*
X14706600Y-7797000D01*
X14706600Y-8051000D02*
X14756600Y-8001000D01*
X14706600Y-7951000D01*
X14656600Y-8001000D01*
X14706600Y-8051000D01*
X14706600Y-8305000D02*
X14756600Y-8255000D01*
X14706600Y-8205000D01*
X14656600Y-8255000D01*
X14706600Y-8305000D01*
X14706600Y-8559000D02*
X14756600Y-8509000D01*
X14706600Y-8459000D01*
X14656600Y-8509000D01*
X14706600Y-8559000D01*
X14706600Y-8813000D02*
X14756600Y-8763000D01*
X14706600Y-8713000D01*
X14656600Y-8763000D01*
X14706600Y-8813000D01*
X14706600Y-9067000D02*
X14756600Y-9017000D01*
X14706600Y-8967000D01*
X14656600Y-9017000D01*
X14706600Y-9067000D01*
X14706600Y-9321000D02*
X14756600Y-9271000D01*
X14706600Y-9221000D01*
X14656600Y-9271000D01*
X14706600Y-9321000D01*
X14706600Y-9575000D02*
X14756600Y-9525000D01*
X14706600Y-9475000D01*
X14656600Y-9525000D01*
X14706600Y-9575000D01*
X14706600Y-9829000D02*
X14756600Y-9779000D01*
X14706600Y-9729000D01*
X14656600Y-9779000D01*
X14706600Y-9829000D01*
X14706600Y-10083000D02*
X14756600Y-10033000D01*
X14706600Y-9983000D01*
X14656600Y-10033000D01*
X14706600Y-10083000D01*
X14706600Y-10337000D02*
X14756600Y-10287000D01*
X14706600Y-10237000D01*
X14656600Y-10287000D01*
X14706600Y-10337000D01*
X14706600Y-10591000D02*
X14756600Y-10541000D01*
X14706600Y-10491000D01*
X14656600Y-10541000D01*
X14706600Y-10591000D01*
X14706600Y-10845000D02*
X14756600Y-10795000D01*
X14706600Y-10745000D01*
X14656600Y-10795000D01*
X14706600Y-10845000D01*
X14706600Y-11099000D02*
X14756600Y-11049000D01*
X14706600Y-10999000D01*
X14656600Y-11049000D01*
X14706600Y-11099000D01*
X14706600Y-11353000D02*
X14756600Y-11303000D01*
X14706600Y-11253000D01*
X14656600Y-11303000D01*
X14706600Y-11353000D01*
X16230600Y-7797000D02*
X16280600Y-7747000D01*
X16230600Y-7697000D01*
X16180600Y-7747000D01*
X16230600Y-7797000D01*
X16230600Y-8051000D02*
X16280600Y-8001000D01*
X16230600Y-7951000D01*
X16180600Y-8001000D01*
X16230600Y-8051000D01*
X16230600Y-8305000D02*
X16280600Y-8255000D01*
X16230600Y-8205000D01*
X16180600Y-8255000D01*
X16230600Y-8305000D01*
X16230600Y-8559000D02*
X16280600Y-8509000D01*
X16230600Y-8459000D01*
X16180600Y-8509000D01*
X16230600Y-8559000D01*
X16230600Y-8813000D02*
X16280600Y-8763000D01*
X16230600Y-8713000D01*
X16180600Y-8763000D01*
X16230600Y-8813000D01*
X16230600Y-9067000D02*
X16280600Y-9017000D01*
X16230600Y-8967000D01*
X16180600Y-9017000D01*
X16230600Y-9067000D01*
X16230600Y-9321000D02*
X16280600Y-9271000D01*
X16230600Y-9221000D01*
X16180600Y-9271000D01*
X16230600Y-9321000D01*
X16230600Y-9575000D02*
X16280600Y-9525000D01*
X16230600Y-9475000D01*
X16180600Y-9525000D01*
X16230600Y-9575000D01*
X16230600Y-9829000D02*
X16280600Y-9779000D01*
X16230600Y-9729000D01*
X16180600Y-9779000D01*
X16230600Y-9829000D01*
X16230600Y-10083000D02*
X16280600Y-10033000D01*
X16230600Y-9983000D01*
X16180600Y-10033000D01*
X16230600Y-10083000D01*
X16230600Y-10337000D02*
X16280600Y-10287000D01*
X16230600Y-10237000D01*
X16180600Y-10287000D01*
X16230600Y-10337000D01*
X16230600Y-10591000D02*
X16280600Y-10541000D01*
X16230600Y-10491000D01*
X16180600Y-10541000D01*
X16230600Y-10591000D01*
X16230600Y-10845000D02*
X16280600Y-10795000D01*
X16230600Y-10745000D01*
X16180600Y-10795000D01*
X16230600Y-10845000D01*
X16230600Y-11099000D02*
X16280600Y-11049000D01*
X16230600Y-10999000D01*
X16180600Y-11049000D01*
X16230600Y-11099000D01*
X16230600Y-11353000D02*
X16280600Y-11303000D01*
X16230600Y-11253000D01*
X16180600Y-11303000D01*
X16230600Y-11353000D01*
X17246600Y-8815000D02*
X17296600Y-8765000D01*
X17246600Y-8715000D01*
X17196600Y-8765000D01*
X17246600Y-8815000D01*
X17246600Y-9575000D02*
X17296600Y-9525000D01*
X17246600Y-9475000D01*
X17196600Y-9525000D01*
X17246600Y-9575000D01*
D12*
X12414100Y-11814000D02*
X12524100Y-11924000D01*
X12524100Y-11814000D02*
X12414100Y-11924000D01*
X12524100Y-11869000D02*
G75*
G03*
X12524100Y-11869000I-55000J0D01*
G01*
X12414100Y-12264000D02*
X12524100Y-12374000D01*
X12524100Y-12264000D02*
X12414100Y-12374000D01*
X12524100Y-12319000D02*
G75*
G03*
X12524100Y-12319000I-55000J0D01*
G01*
X13064100Y-11814000D02*
X13174100Y-11924000D01*
X13174100Y-11814000D02*
X13064100Y-11924000D01*
X13174100Y-11869000D02*
G75*
G03*
X13174100Y-11869000I-55000J0D01*
G01*
X13064100Y-12264000D02*
X13174100Y-12374000D01*
X13174100Y-12264000D02*
X13064100Y-12374000D01*
X13174100Y-12319000D02*
G75*
G03*
X13174100Y-12319000I-55000J0D01*
G01*
D13*
X12029600Y-7179500D02*
X12179600Y-7329500D01*
X12179600Y-7179500D02*
X12029600Y-7329500D01*
X12104600Y-7179500D02*
X12104600Y-7329500D01*
X12029600Y-7254500D02*
X12179600Y-7254500D01*
D10*
X12169600Y-7179500D02*
X12039600Y-7179500D01*
X12039600Y-7179500D02*
G75*
G03*
X12039600Y-7329500I0J-75000D01*
G01*
X12039600Y-7329500D02*
X12169600Y-7329500D01*
X12169600Y-7329500D02*
G75*
G03*
X12169600Y-7179500I0J75000D01*
G01*
D13*
X12029600Y-8299500D02*
X12179600Y-8449500D01*
X12179600Y-8299500D02*
X12029600Y-8449500D01*
X12104600Y-8299500D02*
X12104600Y-8449500D01*
X12029600Y-8374500D02*
X12179600Y-8374500D01*
D10*
X12169600Y-8299500D02*
X12039600Y-8299500D01*
X12039600Y-8299500D02*
G75*
G03*
X12039600Y-8449500I0J-75000D01*
G01*
X12039600Y-8449500D02*
X12169600Y-8449500D01*
X12169600Y-8449500D02*
G75*
G03*
X12169600Y-8299500I0J75000D01*
G01*
D11*
X11406377Y-13143484D02*
X11406377Y-12943484D01*
X11406377Y-12943484D02*
X11453996Y-12943484D01*
X11453996Y-12943484D02*
X11482567Y-12953008D01*
X11482567Y-12953008D02*
X11501615Y-12972055D01*
X11501615Y-12972055D02*
X11511139Y-12991103D01*
X11511139Y-12991103D02*
X11520662Y-13029198D01*
X11520662Y-13029198D02*
X11520662Y-13057769D01*
X11520662Y-13057769D02*
X11511139Y-13095865D01*
X11511139Y-13095865D02*
X11501615Y-13114912D01*
X11501615Y-13114912D02*
X11482567Y-13133960D01*
X11482567Y-13133960D02*
X11453996Y-13143484D01*
X11453996Y-13143484D02*
X11406377Y-13143484D01*
X11606377Y-13143484D02*
X11606377Y-13010150D01*
X11606377Y-13048246D02*
X11615901Y-13029198D01*
X11615901Y-13029198D02*
X11625424Y-13019674D01*
X11625424Y-13019674D02*
X11644472Y-13010150D01*
X11644472Y-13010150D02*
X11663520Y-13010150D01*
X11730186Y-13143484D02*
X11730186Y-13010150D01*
X11730186Y-12943484D02*
X11720662Y-12953008D01*
X11720662Y-12953008D02*
X11730186Y-12962531D01*
X11730186Y-12962531D02*
X11739710Y-12953008D01*
X11739710Y-12953008D02*
X11730186Y-12943484D01*
X11730186Y-12943484D02*
X11730186Y-12962531D01*
X11853996Y-13143484D02*
X11834948Y-13133960D01*
X11834948Y-13133960D02*
X11825424Y-13114912D01*
X11825424Y-13114912D02*
X11825424Y-12943484D01*
X11958758Y-13143484D02*
X11939710Y-13133960D01*
X11939710Y-13133960D02*
X11930186Y-13114912D01*
X11930186Y-13114912D02*
X11930186Y-12943484D01*
X12187329Y-13143484D02*
X12187329Y-12943484D01*
X12187329Y-12943484D02*
X12253996Y-13086341D01*
X12253996Y-13086341D02*
X12320662Y-12943484D01*
X12320662Y-12943484D02*
X12320662Y-13143484D01*
X12501615Y-13143484D02*
X12501615Y-13038722D01*
X12501615Y-13038722D02*
X12492091Y-13019674D01*
X12492091Y-13019674D02*
X12473043Y-13010150D01*
X12473043Y-13010150D02*
X12434948Y-13010150D01*
X12434948Y-13010150D02*
X12415901Y-13019674D01*
X12501615Y-13133960D02*
X12482567Y-13143484D01*
X12482567Y-13143484D02*
X12434948Y-13143484D01*
X12434948Y-13143484D02*
X12415901Y-13133960D01*
X12415901Y-13133960D02*
X12406377Y-13114912D01*
X12406377Y-13114912D02*
X12406377Y-13095865D01*
X12406377Y-13095865D02*
X12415901Y-13076817D01*
X12415901Y-13076817D02*
X12434948Y-13067293D01*
X12434948Y-13067293D02*
X12482567Y-13067293D01*
X12482567Y-13067293D02*
X12501615Y-13057769D01*
X12596853Y-13010150D02*
X12596853Y-13210150D01*
X12596853Y-13019674D02*
X12615901Y-13010150D01*
X12615901Y-13010150D02*
X12653996Y-13010150D01*
X12653996Y-13010150D02*
X12673043Y-13019674D01*
X12673043Y-13019674D02*
X12682567Y-13029198D01*
X12682567Y-13029198D02*
X12692091Y-13048246D01*
X12692091Y-13048246D02*
X12692091Y-13105388D01*
X12692091Y-13105388D02*
X12682567Y-13124436D01*
X12682567Y-13124436D02*
X12673043Y-13133960D01*
X12673043Y-13133960D02*
X12653996Y-13143484D01*
X12653996Y-13143484D02*
X12615901Y-13143484D01*
X12615901Y-13143484D02*
X12596853Y-13133960D01*
X12777805Y-13124436D02*
X12787329Y-13133960D01*
X12787329Y-13133960D02*
X12777805Y-13143484D01*
X12777805Y-13143484D02*
X12768282Y-13133960D01*
X12768282Y-13133960D02*
X12777805Y-13124436D01*
X12777805Y-13124436D02*
X12777805Y-13143484D01*
X12777805Y-13019674D02*
X12787329Y-13029198D01*
X12787329Y-13029198D02*
X12777805Y-13038722D01*
X12777805Y-13038722D02*
X12768282Y-13029198D01*
X12768282Y-13029198D02*
X12777805Y-13019674D01*
X12777805Y-13019674D02*
X12777805Y-13038722D01*
D10*
X11105600Y-13452000D02*
X11145600Y-13492000D01*
X11145600Y-13452000D02*
X11105600Y-13492000D01*
D11*
X11444472Y-13363484D02*
X11463520Y-13363484D01*
X11463520Y-13363484D02*
X11482567Y-13373008D01*
X11482567Y-13373008D02*
X11492091Y-13382531D01*
X11492091Y-13382531D02*
X11501615Y-13401579D01*
X11501615Y-13401579D02*
X11511139Y-13439674D01*
X11511139Y-13439674D02*
X11511139Y-13487293D01*
X11511139Y-13487293D02*
X11501615Y-13525388D01*
X11501615Y-13525388D02*
X11492091Y-13544436D01*
X11492091Y-13544436D02*
X11482567Y-13553960D01*
X11482567Y-13553960D02*
X11463520Y-13563484D01*
X11463520Y-13563484D02*
X11444472Y-13563484D01*
X11444472Y-13563484D02*
X11425424Y-13553960D01*
X11425424Y-13553960D02*
X11415901Y-13544436D01*
X11415901Y-13544436D02*
X11406377Y-13525388D01*
X11406377Y-13525388D02*
X11396853Y-13487293D01*
X11396853Y-13487293D02*
X11396853Y-13439674D01*
X11396853Y-13439674D02*
X11406377Y-13401579D01*
X11406377Y-13401579D02*
X11415901Y-13382531D01*
X11415901Y-13382531D02*
X11425424Y-13373008D01*
X11425424Y-13373008D02*
X11444472Y-13363484D01*
X11596853Y-13544436D02*
X11606377Y-13553960D01*
X11606377Y-13553960D02*
X11596853Y-13563484D01*
X11596853Y-13563484D02*
X11587329Y-13553960D01*
X11587329Y-13553960D02*
X11596853Y-13544436D01*
X11596853Y-13544436D02*
X11596853Y-13563484D01*
X11777805Y-13430150D02*
X11777805Y-13563484D01*
X11730186Y-13353960D02*
X11682567Y-13496817D01*
X11682567Y-13496817D02*
X11806377Y-13496817D01*
X11920662Y-13363484D02*
X11939710Y-13363484D01*
X11939710Y-13363484D02*
X11958758Y-13373008D01*
X11958758Y-13373008D02*
X11968282Y-13382531D01*
X11968282Y-13382531D02*
X11977805Y-13401579D01*
X11977805Y-13401579D02*
X11987329Y-13439674D01*
X11987329Y-13439674D02*
X11987329Y-13487293D01*
X11987329Y-13487293D02*
X11977805Y-13525388D01*
X11977805Y-13525388D02*
X11968282Y-13544436D01*
X11968282Y-13544436D02*
X11958758Y-13553960D01*
X11958758Y-13553960D02*
X11939710Y-13563484D01*
X11939710Y-13563484D02*
X11920662Y-13563484D01*
X11920662Y-13563484D02*
X11901615Y-13553960D01*
X11901615Y-13553960D02*
X11892091Y-13544436D01*
X11892091Y-13544436D02*
X11882567Y-13525388D01*
X11882567Y-13525388D02*
X11873043Y-13487293D01*
X11873043Y-13487293D02*
X11873043Y-13439674D01*
X11873043Y-13439674D02*
X11882567Y-13401579D01*
X11882567Y-13401579D02*
X11892091Y-13382531D01*
X11892091Y-13382531D02*
X11901615Y-13373008D01*
X11901615Y-13373008D02*
X11920662Y-13363484D01*
X12111139Y-13363484D02*
X12130186Y-13363484D01*
X12130186Y-13363484D02*
X12149234Y-13373008D01*
X12149234Y-13373008D02*
X12158758Y-13382531D01*
X12158758Y-13382531D02*
X12168282Y-13401579D01*
X12168282Y-13401579D02*
X12177805Y-13439674D01*
X12177805Y-13439674D02*
X12177805Y-13487293D01*
X12177805Y-13487293D02*
X12168282Y-13525388D01*
X12168282Y-13525388D02*
X12158758Y-13544436D01*
X12158758Y-13544436D02*
X12149234Y-13553960D01*
X12149234Y-13553960D02*
X12130186Y-13563484D01*
X12130186Y-13563484D02*
X12111139Y-13563484D01*
X12111139Y-13563484D02*
X12092091Y-13553960D01*
X12092091Y-13553960D02*
X12082567Y-13544436D01*
X12082567Y-13544436D02*
X12073043Y-13525388D01*
X12073043Y-13525388D02*
X12063520Y-13487293D01*
X12063520Y-13487293D02*
X12063520Y-13439674D01*
X12063520Y-13439674D02*
X12073043Y-13401579D01*
X12073043Y-13401579D02*
X12082567Y-13382531D01*
X12082567Y-13382531D02*
X12092091Y-13373008D01*
X12092091Y-13373008D02*
X12111139Y-13363484D01*
X12263520Y-13563484D02*
X12263520Y-13430150D01*
X12263520Y-13449198D02*
X12273043Y-13439674D01*
X12273043Y-13439674D02*
X12292091Y-13430150D01*
X12292091Y-13430150D02*
X12320663Y-13430150D01*
X12320663Y-13430150D02*
X12339710Y-13439674D01*
X12339710Y-13439674D02*
X12349234Y-13458722D01*
X12349234Y-13458722D02*
X12349234Y-13563484D01*
X12349234Y-13458722D02*
X12358758Y-13439674D01*
X12358758Y-13439674D02*
X12377805Y-13430150D01*
X12377805Y-13430150D02*
X12406377Y-13430150D01*
X12406377Y-13430150D02*
X12425424Y-13439674D01*
X12425424Y-13439674D02*
X12434948Y-13458722D01*
X12434948Y-13458722D02*
X12434948Y-13563484D01*
X12530186Y-13563484D02*
X12530186Y-13430150D01*
X12530186Y-13449198D02*
X12539710Y-13439674D01*
X12539710Y-13439674D02*
X12558758Y-13430150D01*
X12558758Y-13430150D02*
X12587329Y-13430150D01*
X12587329Y-13430150D02*
X12606377Y-13439674D01*
X12606377Y-13439674D02*
X12615901Y-13458722D01*
X12615901Y-13458722D02*
X12615901Y-13563484D01*
X12615901Y-13458722D02*
X12625424Y-13439674D01*
X12625424Y-13439674D02*
X12644472Y-13430150D01*
X12644472Y-13430150D02*
X12673043Y-13430150D01*
X12673043Y-13430150D02*
X12692091Y-13439674D01*
X12692091Y-13439674D02*
X12701615Y-13458722D01*
X12701615Y-13458722D02*
X12701615Y-13563484D01*
X13092091Y-13353960D02*
X12920663Y-13611103D01*
X13349234Y-13363484D02*
X13368282Y-13363484D01*
X13368282Y-13363484D02*
X13387329Y-13373008D01*
X13387329Y-13373008D02*
X13396853Y-13382531D01*
X13396853Y-13382531D02*
X13406377Y-13401579D01*
X13406377Y-13401579D02*
X13415901Y-13439674D01*
X13415901Y-13439674D02*
X13415901Y-13487293D01*
X13415901Y-13487293D02*
X13406377Y-13525388D01*
X13406377Y-13525388D02*
X13396853Y-13544436D01*
X13396853Y-13544436D02*
X13387329Y-13553960D01*
X13387329Y-13553960D02*
X13368282Y-13563484D01*
X13368282Y-13563484D02*
X13349234Y-13563484D01*
X13349234Y-13563484D02*
X13330186Y-13553960D01*
X13330186Y-13553960D02*
X13320663Y-13544436D01*
X13320663Y-13544436D02*
X13311139Y-13525388D01*
X13311139Y-13525388D02*
X13301615Y-13487293D01*
X13301615Y-13487293D02*
X13301615Y-13439674D01*
X13301615Y-13439674D02*
X13311139Y-13401579D01*
X13311139Y-13401579D02*
X13320663Y-13382531D01*
X13320663Y-13382531D02*
X13330186Y-13373008D01*
X13330186Y-13373008D02*
X13349234Y-13363484D01*
X13501615Y-13544436D02*
X13511139Y-13553960D01*
X13511139Y-13553960D02*
X13501615Y-13563484D01*
X13501615Y-13563484D02*
X13492091Y-13553960D01*
X13492091Y-13553960D02*
X13501615Y-13544436D01*
X13501615Y-13544436D02*
X13501615Y-13563484D01*
X13634948Y-13363484D02*
X13653996Y-13363484D01*
X13653996Y-13363484D02*
X13673044Y-13373008D01*
X13673044Y-13373008D02*
X13682567Y-13382531D01*
X13682567Y-13382531D02*
X13692091Y-13401579D01*
X13692091Y-13401579D02*
X13701615Y-13439674D01*
X13701615Y-13439674D02*
X13701615Y-13487293D01*
X13701615Y-13487293D02*
X13692091Y-13525388D01*
X13692091Y-13525388D02*
X13682567Y-13544436D01*
X13682567Y-13544436D02*
X13673044Y-13553960D01*
X13673044Y-13553960D02*
X13653996Y-13563484D01*
X13653996Y-13563484D02*
X13634948Y-13563484D01*
X13634948Y-13563484D02*
X13615901Y-13553960D01*
X13615901Y-13553960D02*
X13606377Y-13544436D01*
X13606377Y-13544436D02*
X13596853Y-13525388D01*
X13596853Y-13525388D02*
X13587329Y-13487293D01*
X13587329Y-13487293D02*
X13587329Y-13439674D01*
X13587329Y-13439674D02*
X13596853Y-13401579D01*
X13596853Y-13401579D02*
X13606377Y-13382531D01*
X13606377Y-13382531D02*
X13615901Y-13373008D01*
X13615901Y-13373008D02*
X13634948Y-13363484D01*
X13892091Y-13563484D02*
X13777806Y-13563484D01*
X13834948Y-13563484D02*
X13834948Y-13363484D01*
X13834948Y-13363484D02*
X13815901Y-13392055D01*
X13815901Y-13392055D02*
X13796853Y-13411103D01*
X13796853Y-13411103D02*
X13777806Y-13420627D01*
X14073044Y-13363484D02*
X13977806Y-13363484D01*
X13977806Y-13363484D02*
X13968282Y-13458722D01*
X13968282Y-13458722D02*
X13977806Y-13449198D01*
X13977806Y-13449198D02*
X13996853Y-13439674D01*
X13996853Y-13439674D02*
X14044472Y-13439674D01*
X14044472Y-13439674D02*
X14063520Y-13449198D01*
X14063520Y-13449198D02*
X14073044Y-13458722D01*
X14073044Y-13458722D02*
X14082567Y-13477769D01*
X14082567Y-13477769D02*
X14082567Y-13525388D01*
X14082567Y-13525388D02*
X14073044Y-13544436D01*
X14073044Y-13544436D02*
X14063520Y-13553960D01*
X14063520Y-13553960D02*
X14044472Y-13563484D01*
X14044472Y-13563484D02*
X13996853Y-13563484D01*
X13996853Y-13563484D02*
X13977806Y-13553960D01*
X13977806Y-13553960D02*
X13968282Y-13544436D01*
X14149234Y-13363484D02*
X14282567Y-13363484D01*
X14282567Y-13363484D02*
X14196853Y-13563484D01*
X14349234Y-13363484D02*
X14349234Y-13401579D01*
X14425425Y-13363484D02*
X14425425Y-13401579D01*
X14720663Y-13639674D02*
X14711139Y-13630150D01*
X14711139Y-13630150D02*
X14692091Y-13601579D01*
X14692091Y-13601579D02*
X14682568Y-13582531D01*
X14682568Y-13582531D02*
X14673044Y-13553960D01*
X14673044Y-13553960D02*
X14663520Y-13506341D01*
X14663520Y-13506341D02*
X14663520Y-13468246D01*
X14663520Y-13468246D02*
X14673044Y-13420627D01*
X14673044Y-13420627D02*
X14682568Y-13392055D01*
X14682568Y-13392055D02*
X14692091Y-13373008D01*
X14692091Y-13373008D02*
X14711139Y-13344436D01*
X14711139Y-13344436D02*
X14720663Y-13334912D01*
X14882568Y-13363484D02*
X14844472Y-13363484D01*
X14844472Y-13363484D02*
X14825425Y-13373008D01*
X14825425Y-13373008D02*
X14815901Y-13382531D01*
X14815901Y-13382531D02*
X14796853Y-13411103D01*
X14796853Y-13411103D02*
X14787329Y-13449198D01*
X14787329Y-13449198D02*
X14787329Y-13525388D01*
X14787329Y-13525388D02*
X14796853Y-13544436D01*
X14796853Y-13544436D02*
X14806377Y-13553960D01*
X14806377Y-13553960D02*
X14825425Y-13563484D01*
X14825425Y-13563484D02*
X14863520Y-13563484D01*
X14863520Y-13563484D02*
X14882568Y-13553960D01*
X14882568Y-13553960D02*
X14892091Y-13544436D01*
X14892091Y-13544436D02*
X14901615Y-13525388D01*
X14901615Y-13525388D02*
X14901615Y-13477769D01*
X14901615Y-13477769D02*
X14892091Y-13458722D01*
X14892091Y-13458722D02*
X14882568Y-13449198D01*
X14882568Y-13449198D02*
X14863520Y-13439674D01*
X14863520Y-13439674D02*
X14825425Y-13439674D01*
X14825425Y-13439674D02*
X14806377Y-13449198D01*
X14806377Y-13449198D02*
X14796853Y-13458722D01*
X14796853Y-13458722D02*
X14787329Y-13477769D01*
X15139710Y-13563484D02*
X15139710Y-13363484D01*
X15225425Y-13563484D02*
X15225425Y-13458722D01*
X15225425Y-13458722D02*
X15215901Y-13439674D01*
X15215901Y-13439674D02*
X15196853Y-13430150D01*
X15196853Y-13430150D02*
X15168282Y-13430150D01*
X15168282Y-13430150D02*
X15149234Y-13439674D01*
X15149234Y-13439674D02*
X15139710Y-13449198D01*
X15349234Y-13563484D02*
X15330187Y-13553960D01*
X15330187Y-13553960D02*
X15320663Y-13544436D01*
X15320663Y-13544436D02*
X15311139Y-13525388D01*
X15311139Y-13525388D02*
X15311139Y-13468246D01*
X15311139Y-13468246D02*
X15320663Y-13449198D01*
X15320663Y-13449198D02*
X15330187Y-13439674D01*
X15330187Y-13439674D02*
X15349234Y-13430150D01*
X15349234Y-13430150D02*
X15377806Y-13430150D01*
X15377806Y-13430150D02*
X15396853Y-13439674D01*
X15396853Y-13439674D02*
X15406377Y-13449198D01*
X15406377Y-13449198D02*
X15415901Y-13468246D01*
X15415901Y-13468246D02*
X15415901Y-13525388D01*
X15415901Y-13525388D02*
X15406377Y-13544436D01*
X15406377Y-13544436D02*
X15396853Y-13553960D01*
X15396853Y-13553960D02*
X15377806Y-13563484D01*
X15377806Y-13563484D02*
X15349234Y-13563484D01*
X15530187Y-13563484D02*
X15511139Y-13553960D01*
X15511139Y-13553960D02*
X15501615Y-13534912D01*
X15501615Y-13534912D02*
X15501615Y-13363484D01*
X15682568Y-13553960D02*
X15663520Y-13563484D01*
X15663520Y-13563484D02*
X15625425Y-13563484D01*
X15625425Y-13563484D02*
X15606377Y-13553960D01*
X15606377Y-13553960D02*
X15596853Y-13534912D01*
X15596853Y-13534912D02*
X15596853Y-13458722D01*
X15596853Y-13458722D02*
X15606377Y-13439674D01*
X15606377Y-13439674D02*
X15625425Y-13430150D01*
X15625425Y-13430150D02*
X15663520Y-13430150D01*
X15663520Y-13430150D02*
X15682568Y-13439674D01*
X15682568Y-13439674D02*
X15692091Y-13458722D01*
X15692091Y-13458722D02*
X15692091Y-13477769D01*
X15692091Y-13477769D02*
X15596853Y-13496817D01*
X15768282Y-13553960D02*
X15787330Y-13563484D01*
X15787330Y-13563484D02*
X15825425Y-13563484D01*
X15825425Y-13563484D02*
X15844472Y-13553960D01*
X15844472Y-13553960D02*
X15853996Y-13534912D01*
X15853996Y-13534912D02*
X15853996Y-13525388D01*
X15853996Y-13525388D02*
X15844472Y-13506341D01*
X15844472Y-13506341D02*
X15825425Y-13496817D01*
X15825425Y-13496817D02*
X15796853Y-13496817D01*
X15796853Y-13496817D02*
X15777806Y-13487293D01*
X15777806Y-13487293D02*
X15768282Y-13468246D01*
X15768282Y-13468246D02*
X15768282Y-13458722D01*
X15768282Y-13458722D02*
X15777806Y-13439674D01*
X15777806Y-13439674D02*
X15796853Y-13430150D01*
X15796853Y-13430150D02*
X15825425Y-13430150D01*
X15825425Y-13430150D02*
X15844472Y-13439674D01*
X15920663Y-13639674D02*
X15930187Y-13630150D01*
X15930187Y-13630150D02*
X15949234Y-13601579D01*
X15949234Y-13601579D02*
X15958758Y-13582531D01*
X15958758Y-13582531D02*
X15968282Y-13553960D01*
X15968282Y-13553960D02*
X15977806Y-13506341D01*
X15977806Y-13506341D02*
X15977806Y-13468246D01*
X15977806Y-13468246D02*
X15968282Y-13420627D01*
X15968282Y-13420627D02*
X15958758Y-13392055D01*
X15958758Y-13392055D02*
X15949234Y-13373008D01*
X15949234Y-13373008D02*
X15930187Y-13344436D01*
X15930187Y-13344436D02*
X15920663Y-13334912D01*
D10*
X11145600Y-13736000D02*
G75*
G03*
X11145600Y-13736000I-20000J0D01*
G01*
D11*
X11444472Y-13627484D02*
X11463520Y-13627484D01*
X11463520Y-13627484D02*
X11482567Y-13637008D01*
X11482567Y-13637008D02*
X11492091Y-13646531D01*
X11492091Y-13646531D02*
X11501615Y-13665579D01*
X11501615Y-13665579D02*
X11511139Y-13703674D01*
X11511139Y-13703674D02*
X11511139Y-13751293D01*
X11511139Y-13751293D02*
X11501615Y-13789388D01*
X11501615Y-13789388D02*
X11492091Y-13808436D01*
X11492091Y-13808436D02*
X11482567Y-13817960D01*
X11482567Y-13817960D02*
X11463520Y-13827484D01*
X11463520Y-13827484D02*
X11444472Y-13827484D01*
X11444472Y-13827484D02*
X11425424Y-13817960D01*
X11425424Y-13817960D02*
X11415901Y-13808436D01*
X11415901Y-13808436D02*
X11406377Y-13789388D01*
X11406377Y-13789388D02*
X11396853Y-13751293D01*
X11396853Y-13751293D02*
X11396853Y-13703674D01*
X11396853Y-13703674D02*
X11406377Y-13665579D01*
X11406377Y-13665579D02*
X11415901Y-13646531D01*
X11415901Y-13646531D02*
X11425424Y-13637008D01*
X11425424Y-13637008D02*
X11444472Y-13627484D01*
X11596853Y-13808436D02*
X11606377Y-13817960D01*
X11606377Y-13817960D02*
X11596853Y-13827484D01*
X11596853Y-13827484D02*
X11587329Y-13817960D01*
X11587329Y-13817960D02*
X11596853Y-13808436D01*
X11596853Y-13808436D02*
X11596853Y-13827484D01*
X11777805Y-13694150D02*
X11777805Y-13827484D01*
X11730186Y-13617960D02*
X11682567Y-13760817D01*
X11682567Y-13760817D02*
X11806377Y-13760817D01*
X11920662Y-13627484D02*
X11939710Y-13627484D01*
X11939710Y-13627484D02*
X11958758Y-13637008D01*
X11958758Y-13637008D02*
X11968282Y-13646531D01*
X11968282Y-13646531D02*
X11977805Y-13665579D01*
X11977805Y-13665579D02*
X11987329Y-13703674D01*
X11987329Y-13703674D02*
X11987329Y-13751293D01*
X11987329Y-13751293D02*
X11977805Y-13789388D01*
X11977805Y-13789388D02*
X11968282Y-13808436D01*
X11968282Y-13808436D02*
X11958758Y-13817960D01*
X11958758Y-13817960D02*
X11939710Y-13827484D01*
X11939710Y-13827484D02*
X11920662Y-13827484D01*
X11920662Y-13827484D02*
X11901615Y-13817960D01*
X11901615Y-13817960D02*
X11892091Y-13808436D01*
X11892091Y-13808436D02*
X11882567Y-13789388D01*
X11882567Y-13789388D02*
X11873043Y-13751293D01*
X11873043Y-13751293D02*
X11873043Y-13703674D01*
X11873043Y-13703674D02*
X11882567Y-13665579D01*
X11882567Y-13665579D02*
X11892091Y-13646531D01*
X11892091Y-13646531D02*
X11901615Y-13637008D01*
X11901615Y-13637008D02*
X11920662Y-13627484D01*
X12111139Y-13627484D02*
X12130186Y-13627484D01*
X12130186Y-13627484D02*
X12149234Y-13637008D01*
X12149234Y-13637008D02*
X12158758Y-13646531D01*
X12158758Y-13646531D02*
X12168282Y-13665579D01*
X12168282Y-13665579D02*
X12177805Y-13703674D01*
X12177805Y-13703674D02*
X12177805Y-13751293D01*
X12177805Y-13751293D02*
X12168282Y-13789388D01*
X12168282Y-13789388D02*
X12158758Y-13808436D01*
X12158758Y-13808436D02*
X12149234Y-13817960D01*
X12149234Y-13817960D02*
X12130186Y-13827484D01*
X12130186Y-13827484D02*
X12111139Y-13827484D01*
X12111139Y-13827484D02*
X12092091Y-13817960D01*
X12092091Y-13817960D02*
X12082567Y-13808436D01*
X12082567Y-13808436D02*
X12073043Y-13789388D01*
X12073043Y-13789388D02*
X12063520Y-13751293D01*
X12063520Y-13751293D02*
X12063520Y-13703674D01*
X12063520Y-13703674D02*
X12073043Y-13665579D01*
X12073043Y-13665579D02*
X12082567Y-13646531D01*
X12082567Y-13646531D02*
X12092091Y-13637008D01*
X12092091Y-13637008D02*
X12111139Y-13627484D01*
X12263520Y-13827484D02*
X12263520Y-13694150D01*
X12263520Y-13713198D02*
X12273043Y-13703674D01*
X12273043Y-13703674D02*
X12292091Y-13694150D01*
X12292091Y-13694150D02*
X12320663Y-13694150D01*
X12320663Y-13694150D02*
X12339710Y-13703674D01*
X12339710Y-13703674D02*
X12349234Y-13722722D01*
X12349234Y-13722722D02*
X12349234Y-13827484D01*
X12349234Y-13722722D02*
X12358758Y-13703674D01*
X12358758Y-13703674D02*
X12377805Y-13694150D01*
X12377805Y-13694150D02*
X12406377Y-13694150D01*
X12406377Y-13694150D02*
X12425424Y-13703674D01*
X12425424Y-13703674D02*
X12434948Y-13722722D01*
X12434948Y-13722722D02*
X12434948Y-13827484D01*
X12530186Y-13827484D02*
X12530186Y-13694150D01*
X12530186Y-13713198D02*
X12539710Y-13703674D01*
X12539710Y-13703674D02*
X12558758Y-13694150D01*
X12558758Y-13694150D02*
X12587329Y-13694150D01*
X12587329Y-13694150D02*
X12606377Y-13703674D01*
X12606377Y-13703674D02*
X12615901Y-13722722D01*
X12615901Y-13722722D02*
X12615901Y-13827484D01*
X12615901Y-13722722D02*
X12625424Y-13703674D01*
X12625424Y-13703674D02*
X12644472Y-13694150D01*
X12644472Y-13694150D02*
X12673043Y-13694150D01*
X12673043Y-13694150D02*
X12692091Y-13703674D01*
X12692091Y-13703674D02*
X12701615Y-13722722D01*
X12701615Y-13722722D02*
X12701615Y-13827484D01*
X13092091Y-13617960D02*
X12920663Y-13875103D01*
X13349234Y-13627484D02*
X13368282Y-13627484D01*
X13368282Y-13627484D02*
X13387329Y-13637008D01*
X13387329Y-13637008D02*
X13396853Y-13646531D01*
X13396853Y-13646531D02*
X13406377Y-13665579D01*
X13406377Y-13665579D02*
X13415901Y-13703674D01*
X13415901Y-13703674D02*
X13415901Y-13751293D01*
X13415901Y-13751293D02*
X13406377Y-13789388D01*
X13406377Y-13789388D02*
X13396853Y-13808436D01*
X13396853Y-13808436D02*
X13387329Y-13817960D01*
X13387329Y-13817960D02*
X13368282Y-13827484D01*
X13368282Y-13827484D02*
X13349234Y-13827484D01*
X13349234Y-13827484D02*
X13330186Y-13817960D01*
X13330186Y-13817960D02*
X13320663Y-13808436D01*
X13320663Y-13808436D02*
X13311139Y-13789388D01*
X13311139Y-13789388D02*
X13301615Y-13751293D01*
X13301615Y-13751293D02*
X13301615Y-13703674D01*
X13301615Y-13703674D02*
X13311139Y-13665579D01*
X13311139Y-13665579D02*
X13320663Y-13646531D01*
X13320663Y-13646531D02*
X13330186Y-13637008D01*
X13330186Y-13637008D02*
X13349234Y-13627484D01*
X13501615Y-13808436D02*
X13511139Y-13817960D01*
X13511139Y-13817960D02*
X13501615Y-13827484D01*
X13501615Y-13827484D02*
X13492091Y-13817960D01*
X13492091Y-13817960D02*
X13501615Y-13808436D01*
X13501615Y-13808436D02*
X13501615Y-13827484D01*
X13634948Y-13627484D02*
X13653996Y-13627484D01*
X13653996Y-13627484D02*
X13673044Y-13637008D01*
X13673044Y-13637008D02*
X13682567Y-13646531D01*
X13682567Y-13646531D02*
X13692091Y-13665579D01*
X13692091Y-13665579D02*
X13701615Y-13703674D01*
X13701615Y-13703674D02*
X13701615Y-13751293D01*
X13701615Y-13751293D02*
X13692091Y-13789388D01*
X13692091Y-13789388D02*
X13682567Y-13808436D01*
X13682567Y-13808436D02*
X13673044Y-13817960D01*
X13673044Y-13817960D02*
X13653996Y-13827484D01*
X13653996Y-13827484D02*
X13634948Y-13827484D01*
X13634948Y-13827484D02*
X13615901Y-13817960D01*
X13615901Y-13817960D02*
X13606377Y-13808436D01*
X13606377Y-13808436D02*
X13596853Y-13789388D01*
X13596853Y-13789388D02*
X13587329Y-13751293D01*
X13587329Y-13751293D02*
X13587329Y-13703674D01*
X13587329Y-13703674D02*
X13596853Y-13665579D01*
X13596853Y-13665579D02*
X13606377Y-13646531D01*
X13606377Y-13646531D02*
X13615901Y-13637008D01*
X13615901Y-13637008D02*
X13634948Y-13627484D01*
X13892091Y-13827484D02*
X13777806Y-13827484D01*
X13834948Y-13827484D02*
X13834948Y-13627484D01*
X13834948Y-13627484D02*
X13815901Y-13656055D01*
X13815901Y-13656055D02*
X13796853Y-13675103D01*
X13796853Y-13675103D02*
X13777806Y-13684627D01*
X14073044Y-13627484D02*
X13977806Y-13627484D01*
X13977806Y-13627484D02*
X13968282Y-13722722D01*
X13968282Y-13722722D02*
X13977806Y-13713198D01*
X13977806Y-13713198D02*
X13996853Y-13703674D01*
X13996853Y-13703674D02*
X14044472Y-13703674D01*
X14044472Y-13703674D02*
X14063520Y-13713198D01*
X14063520Y-13713198D02*
X14073044Y-13722722D01*
X14073044Y-13722722D02*
X14082567Y-13741769D01*
X14082567Y-13741769D02*
X14082567Y-13789388D01*
X14082567Y-13789388D02*
X14073044Y-13808436D01*
X14073044Y-13808436D02*
X14063520Y-13817960D01*
X14063520Y-13817960D02*
X14044472Y-13827484D01*
X14044472Y-13827484D02*
X13996853Y-13827484D01*
X13996853Y-13827484D02*
X13977806Y-13817960D01*
X13977806Y-13817960D02*
X13968282Y-13808436D01*
X14149234Y-13627484D02*
X14282567Y-13627484D01*
X14282567Y-13627484D02*
X14196853Y-13827484D01*
X14349234Y-13627484D02*
X14349234Y-13665579D01*
X14425425Y-13627484D02*
X14425425Y-13665579D01*
X14720663Y-13903674D02*
X14711139Y-13894150D01*
X14711139Y-13894150D02*
X14692091Y-13865579D01*
X14692091Y-13865579D02*
X14682568Y-13846531D01*
X14682568Y-13846531D02*
X14673044Y-13817960D01*
X14673044Y-13817960D02*
X14663520Y-13770341D01*
X14663520Y-13770341D02*
X14663520Y-13732246D01*
X14663520Y-13732246D02*
X14673044Y-13684627D01*
X14673044Y-13684627D02*
X14682568Y-13656055D01*
X14682568Y-13656055D02*
X14692091Y-13637008D01*
X14692091Y-13637008D02*
X14711139Y-13608436D01*
X14711139Y-13608436D02*
X14720663Y-13598912D01*
X14834948Y-13627484D02*
X14853996Y-13627484D01*
X14853996Y-13627484D02*
X14873044Y-13637008D01*
X14873044Y-13637008D02*
X14882568Y-13646531D01*
X14882568Y-13646531D02*
X14892091Y-13665579D01*
X14892091Y-13665579D02*
X14901615Y-13703674D01*
X14901615Y-13703674D02*
X14901615Y-13751293D01*
X14901615Y-13751293D02*
X14892091Y-13789388D01*
X14892091Y-13789388D02*
X14882568Y-13808436D01*
X14882568Y-13808436D02*
X14873044Y-13817960D01*
X14873044Y-13817960D02*
X14853996Y-13827484D01*
X14853996Y-13827484D02*
X14834948Y-13827484D01*
X14834948Y-13827484D02*
X14815901Y-13817960D01*
X14815901Y-13817960D02*
X14806377Y-13808436D01*
X14806377Y-13808436D02*
X14796853Y-13789388D01*
X14796853Y-13789388D02*
X14787329Y-13751293D01*
X14787329Y-13751293D02*
X14787329Y-13703674D01*
X14787329Y-13703674D02*
X14796853Y-13665579D01*
X14796853Y-13665579D02*
X14806377Y-13646531D01*
X14806377Y-13646531D02*
X14815901Y-13637008D01*
X14815901Y-13637008D02*
X14834948Y-13627484D01*
X15139710Y-13827484D02*
X15139710Y-13627484D01*
X15225425Y-13827484D02*
X15225425Y-13722722D01*
X15225425Y-13722722D02*
X15215901Y-13703674D01*
X15215901Y-13703674D02*
X15196853Y-13694150D01*
X15196853Y-13694150D02*
X15168282Y-13694150D01*
X15168282Y-13694150D02*
X15149234Y-13703674D01*
X15149234Y-13703674D02*
X15139710Y-13713198D01*
X15349234Y-13827484D02*
X15330187Y-13817960D01*
X15330187Y-13817960D02*
X15320663Y-13808436D01*
X15320663Y-13808436D02*
X15311139Y-13789388D01*
X15311139Y-13789388D02*
X15311139Y-13732246D01*
X15311139Y-13732246D02*
X15320663Y-13713198D01*
X15320663Y-13713198D02*
X15330187Y-13703674D01*
X15330187Y-13703674D02*
X15349234Y-13694150D01*
X15349234Y-13694150D02*
X15377806Y-13694150D01*
X15377806Y-13694150D02*
X15396853Y-13703674D01*
X15396853Y-13703674D02*
X15406377Y-13713198D01*
X15406377Y-13713198D02*
X15415901Y-13732246D01*
X15415901Y-13732246D02*
X15415901Y-13789388D01*
X15415901Y-13789388D02*
X15406377Y-13808436D01*
X15406377Y-13808436D02*
X15396853Y-13817960D01*
X15396853Y-13817960D02*
X15377806Y-13827484D01*
X15377806Y-13827484D02*
X15349234Y-13827484D01*
X15530187Y-13827484D02*
X15511139Y-13817960D01*
X15511139Y-13817960D02*
X15501615Y-13798912D01*
X15501615Y-13798912D02*
X15501615Y-13627484D01*
X15682568Y-13817960D02*
X15663520Y-13827484D01*
X15663520Y-13827484D02*
X15625425Y-13827484D01*
X15625425Y-13827484D02*
X15606377Y-13817960D01*
X15606377Y-13817960D02*
X15596853Y-13798912D01*
X15596853Y-13798912D02*
X15596853Y-13722722D01*
X15596853Y-13722722D02*
X15606377Y-13703674D01*
X15606377Y-13703674D02*
X15625425Y-13694150D01*
X15625425Y-13694150D02*
X15663520Y-13694150D01*
X15663520Y-13694150D02*
X15682568Y-13703674D01*
X15682568Y-13703674D02*
X15692091Y-13722722D01*
X15692091Y-13722722D02*
X15692091Y-13741769D01*
X15692091Y-13741769D02*
X15596853Y-13760817D01*
X15768282Y-13817960D02*
X15787330Y-13827484D01*
X15787330Y-13827484D02*
X15825425Y-13827484D01*
X15825425Y-13827484D02*
X15844472Y-13817960D01*
X15844472Y-13817960D02*
X15853996Y-13798912D01*
X15853996Y-13798912D02*
X15853996Y-13789388D01*
X15853996Y-13789388D02*
X15844472Y-13770341D01*
X15844472Y-13770341D02*
X15825425Y-13760817D01*
X15825425Y-13760817D02*
X15796853Y-13760817D01*
X15796853Y-13760817D02*
X15777806Y-13751293D01*
X15777806Y-13751293D02*
X15768282Y-13732246D01*
X15768282Y-13732246D02*
X15768282Y-13722722D01*
X15768282Y-13722722D02*
X15777806Y-13703674D01*
X15777806Y-13703674D02*
X15796853Y-13694150D01*
X15796853Y-13694150D02*
X15825425Y-13694150D01*
X15825425Y-13694150D02*
X15844472Y-13703674D01*
X16092092Y-13751293D02*
X16244473Y-13751293D01*
X16168282Y-13827484D02*
X16168282Y-13675103D01*
X16473044Y-13627484D02*
X16596853Y-13627484D01*
X16596853Y-13627484D02*
X16530187Y-13703674D01*
X16530187Y-13703674D02*
X16558758Y-13703674D01*
X16558758Y-13703674D02*
X16577806Y-13713198D01*
X16577806Y-13713198D02*
X16587330Y-13722722D01*
X16587330Y-13722722D02*
X16596853Y-13741769D01*
X16596853Y-13741769D02*
X16596853Y-13789388D01*
X16596853Y-13789388D02*
X16587330Y-13808436D01*
X16587330Y-13808436D02*
X16577806Y-13817960D01*
X16577806Y-13817960D02*
X16558758Y-13827484D01*
X16558758Y-13827484D02*
X16501615Y-13827484D01*
X16501615Y-13827484D02*
X16482568Y-13817960D01*
X16482568Y-13817960D02*
X16473044Y-13808436D01*
X16825425Y-13817960D02*
X16844473Y-13827484D01*
X16844473Y-13827484D02*
X16882568Y-13827484D01*
X16882568Y-13827484D02*
X16901616Y-13817960D01*
X16901616Y-13817960D02*
X16911139Y-13798912D01*
X16911139Y-13798912D02*
X16911139Y-13789388D01*
X16911139Y-13789388D02*
X16901616Y-13770341D01*
X16901616Y-13770341D02*
X16882568Y-13760817D01*
X16882568Y-13760817D02*
X16853996Y-13760817D01*
X16853996Y-13760817D02*
X16834949Y-13751293D01*
X16834949Y-13751293D02*
X16825425Y-13732246D01*
X16825425Y-13732246D02*
X16825425Y-13722722D01*
X16825425Y-13722722D02*
X16834949Y-13703674D01*
X16834949Y-13703674D02*
X16853996Y-13694150D01*
X16853996Y-13694150D02*
X16882568Y-13694150D01*
X16882568Y-13694150D02*
X16901616Y-13703674D01*
X17025425Y-13827484D02*
X17006377Y-13817960D01*
X17006377Y-13817960D02*
X16996854Y-13798912D01*
X16996854Y-13798912D02*
X16996854Y-13627484D01*
X17130187Y-13827484D02*
X17111139Y-13817960D01*
X17111139Y-13817960D02*
X17101616Y-13808436D01*
X17101616Y-13808436D02*
X17092092Y-13789388D01*
X17092092Y-13789388D02*
X17092092Y-13732246D01*
X17092092Y-13732246D02*
X17101616Y-13713198D01*
X17101616Y-13713198D02*
X17111139Y-13703674D01*
X17111139Y-13703674D02*
X17130187Y-13694150D01*
X17130187Y-13694150D02*
X17158758Y-13694150D01*
X17158758Y-13694150D02*
X17177806Y-13703674D01*
X17177806Y-13703674D02*
X17187330Y-13713198D01*
X17187330Y-13713198D02*
X17196854Y-13732246D01*
X17196854Y-13732246D02*
X17196854Y-13789388D01*
X17196854Y-13789388D02*
X17187330Y-13808436D01*
X17187330Y-13808436D02*
X17177806Y-13817960D01*
X17177806Y-13817960D02*
X17158758Y-13827484D01*
X17158758Y-13827484D02*
X17130187Y-13827484D01*
X17253997Y-13694150D02*
X17330187Y-13694150D01*
X17282568Y-13627484D02*
X17282568Y-13798912D01*
X17282568Y-13798912D02*
X17292092Y-13817960D01*
X17292092Y-13817960D02*
X17311139Y-13827484D01*
X17311139Y-13827484D02*
X17330187Y-13827484D01*
X17387330Y-13817960D02*
X17406377Y-13827484D01*
X17406377Y-13827484D02*
X17444473Y-13827484D01*
X17444473Y-13827484D02*
X17463520Y-13817960D01*
X17463520Y-13817960D02*
X17473044Y-13798912D01*
X17473044Y-13798912D02*
X17473044Y-13789388D01*
X17473044Y-13789388D02*
X17463520Y-13770341D01*
X17463520Y-13770341D02*
X17444473Y-13760817D01*
X17444473Y-13760817D02*
X17415901Y-13760817D01*
X17415901Y-13760817D02*
X17396854Y-13751293D01*
X17396854Y-13751293D02*
X17387330Y-13732246D01*
X17387330Y-13732246D02*
X17387330Y-13722722D01*
X17387330Y-13722722D02*
X17396854Y-13703674D01*
X17396854Y-13703674D02*
X17415901Y-13694150D01*
X17415901Y-13694150D02*
X17444473Y-13694150D01*
X17444473Y-13694150D02*
X17463520Y-13703674D01*
X17539711Y-13903674D02*
X17549235Y-13894150D01*
X17549235Y-13894150D02*
X17568282Y-13865579D01*
X17568282Y-13865579D02*
X17577806Y-13846531D01*
X17577806Y-13846531D02*
X17587330Y-13817960D01*
X17587330Y-13817960D02*
X17596854Y-13770341D01*
X17596854Y-13770341D02*
X17596854Y-13732246D01*
X17596854Y-13732246D02*
X17587330Y-13684627D01*
X17587330Y-13684627D02*
X17577806Y-13656055D01*
X17577806Y-13656055D02*
X17568282Y-13637008D01*
X17568282Y-13637008D02*
X17549235Y-13608436D01*
X17549235Y-13608436D02*
X17539711Y-13598912D01*
D10*
X11105600Y-13960000D02*
X11105600Y-14040000D01*
X11065600Y-14000000D02*
X11145600Y-14000000D01*
D11*
X11444472Y-13891484D02*
X11463520Y-13891484D01*
X11463520Y-13891484D02*
X11482567Y-13901008D01*
X11482567Y-13901008D02*
X11492091Y-13910531D01*
X11492091Y-13910531D02*
X11501615Y-13929579D01*
X11501615Y-13929579D02*
X11511139Y-13967674D01*
X11511139Y-13967674D02*
X11511139Y-14015293D01*
X11511139Y-14015293D02*
X11501615Y-14053388D01*
X11501615Y-14053388D02*
X11492091Y-14072436D01*
X11492091Y-14072436D02*
X11482567Y-14081960D01*
X11482567Y-14081960D02*
X11463520Y-14091484D01*
X11463520Y-14091484D02*
X11444472Y-14091484D01*
X11444472Y-14091484D02*
X11425424Y-14081960D01*
X11425424Y-14081960D02*
X11415901Y-14072436D01*
X11415901Y-14072436D02*
X11406377Y-14053388D01*
X11406377Y-14053388D02*
X11396853Y-14015293D01*
X11396853Y-14015293D02*
X11396853Y-13967674D01*
X11396853Y-13967674D02*
X11406377Y-13929579D01*
X11406377Y-13929579D02*
X11415901Y-13910531D01*
X11415901Y-13910531D02*
X11425424Y-13901008D01*
X11425424Y-13901008D02*
X11444472Y-13891484D01*
X11596853Y-14072436D02*
X11606377Y-14081960D01*
X11606377Y-14081960D02*
X11596853Y-14091484D01*
X11596853Y-14091484D02*
X11587329Y-14081960D01*
X11587329Y-14081960D02*
X11596853Y-14072436D01*
X11596853Y-14072436D02*
X11596853Y-14091484D01*
X11720662Y-13977198D02*
X11701615Y-13967674D01*
X11701615Y-13967674D02*
X11692091Y-13958150D01*
X11692091Y-13958150D02*
X11682567Y-13939103D01*
X11682567Y-13939103D02*
X11682567Y-13929579D01*
X11682567Y-13929579D02*
X11692091Y-13910531D01*
X11692091Y-13910531D02*
X11701615Y-13901008D01*
X11701615Y-13901008D02*
X11720662Y-13891484D01*
X11720662Y-13891484D02*
X11758758Y-13891484D01*
X11758758Y-13891484D02*
X11777805Y-13901008D01*
X11777805Y-13901008D02*
X11787329Y-13910531D01*
X11787329Y-13910531D02*
X11796853Y-13929579D01*
X11796853Y-13929579D02*
X11796853Y-13939103D01*
X11796853Y-13939103D02*
X11787329Y-13958150D01*
X11787329Y-13958150D02*
X11777805Y-13967674D01*
X11777805Y-13967674D02*
X11758758Y-13977198D01*
X11758758Y-13977198D02*
X11720662Y-13977198D01*
X11720662Y-13977198D02*
X11701615Y-13986722D01*
X11701615Y-13986722D02*
X11692091Y-13996246D01*
X11692091Y-13996246D02*
X11682567Y-14015293D01*
X11682567Y-14015293D02*
X11682567Y-14053388D01*
X11682567Y-14053388D02*
X11692091Y-14072436D01*
X11692091Y-14072436D02*
X11701615Y-14081960D01*
X11701615Y-14081960D02*
X11720662Y-14091484D01*
X11720662Y-14091484D02*
X11758758Y-14091484D01*
X11758758Y-14091484D02*
X11777805Y-14081960D01*
X11777805Y-14081960D02*
X11787329Y-14072436D01*
X11787329Y-14072436D02*
X11796853Y-14053388D01*
X11796853Y-14053388D02*
X11796853Y-14015293D01*
X11796853Y-14015293D02*
X11787329Y-13996246D01*
X11787329Y-13996246D02*
X11777805Y-13986722D01*
X11777805Y-13986722D02*
X11758758Y-13977198D01*
X11920662Y-13891484D02*
X11939710Y-13891484D01*
X11939710Y-13891484D02*
X11958758Y-13901008D01*
X11958758Y-13901008D02*
X11968282Y-13910531D01*
X11968282Y-13910531D02*
X11977805Y-13929579D01*
X11977805Y-13929579D02*
X11987329Y-13967674D01*
X11987329Y-13967674D02*
X11987329Y-14015293D01*
X11987329Y-14015293D02*
X11977805Y-14053388D01*
X11977805Y-14053388D02*
X11968282Y-14072436D01*
X11968282Y-14072436D02*
X11958758Y-14081960D01*
X11958758Y-14081960D02*
X11939710Y-14091484D01*
X11939710Y-14091484D02*
X11920662Y-14091484D01*
X11920662Y-14091484D02*
X11901615Y-14081960D01*
X11901615Y-14081960D02*
X11892091Y-14072436D01*
X11892091Y-14072436D02*
X11882567Y-14053388D01*
X11882567Y-14053388D02*
X11873043Y-14015293D01*
X11873043Y-14015293D02*
X11873043Y-13967674D01*
X11873043Y-13967674D02*
X11882567Y-13929579D01*
X11882567Y-13929579D02*
X11892091Y-13910531D01*
X11892091Y-13910531D02*
X11901615Y-13901008D01*
X11901615Y-13901008D02*
X11920662Y-13891484D01*
X12111139Y-13891484D02*
X12130186Y-13891484D01*
X12130186Y-13891484D02*
X12149234Y-13901008D01*
X12149234Y-13901008D02*
X12158758Y-13910531D01*
X12158758Y-13910531D02*
X12168282Y-13929579D01*
X12168282Y-13929579D02*
X12177805Y-13967674D01*
X12177805Y-13967674D02*
X12177805Y-14015293D01*
X12177805Y-14015293D02*
X12168282Y-14053388D01*
X12168282Y-14053388D02*
X12158758Y-14072436D01*
X12158758Y-14072436D02*
X12149234Y-14081960D01*
X12149234Y-14081960D02*
X12130186Y-14091484D01*
X12130186Y-14091484D02*
X12111139Y-14091484D01*
X12111139Y-14091484D02*
X12092091Y-14081960D01*
X12092091Y-14081960D02*
X12082567Y-14072436D01*
X12082567Y-14072436D02*
X12073043Y-14053388D01*
X12073043Y-14053388D02*
X12063520Y-14015293D01*
X12063520Y-14015293D02*
X12063520Y-13967674D01*
X12063520Y-13967674D02*
X12073043Y-13929579D01*
X12073043Y-13929579D02*
X12082567Y-13910531D01*
X12082567Y-13910531D02*
X12092091Y-13901008D01*
X12092091Y-13901008D02*
X12111139Y-13891484D01*
X12263520Y-14091484D02*
X12263520Y-13958150D01*
X12263520Y-13977198D02*
X12273043Y-13967674D01*
X12273043Y-13967674D02*
X12292091Y-13958150D01*
X12292091Y-13958150D02*
X12320663Y-13958150D01*
X12320663Y-13958150D02*
X12339710Y-13967674D01*
X12339710Y-13967674D02*
X12349234Y-13986722D01*
X12349234Y-13986722D02*
X12349234Y-14091484D01*
X12349234Y-13986722D02*
X12358758Y-13967674D01*
X12358758Y-13967674D02*
X12377805Y-13958150D01*
X12377805Y-13958150D02*
X12406377Y-13958150D01*
X12406377Y-13958150D02*
X12425424Y-13967674D01*
X12425424Y-13967674D02*
X12434948Y-13986722D01*
X12434948Y-13986722D02*
X12434948Y-14091484D01*
X12530186Y-14091484D02*
X12530186Y-13958150D01*
X12530186Y-13977198D02*
X12539710Y-13967674D01*
X12539710Y-13967674D02*
X12558758Y-13958150D01*
X12558758Y-13958150D02*
X12587329Y-13958150D01*
X12587329Y-13958150D02*
X12606377Y-13967674D01*
X12606377Y-13967674D02*
X12615901Y-13986722D01*
X12615901Y-13986722D02*
X12615901Y-14091484D01*
X12615901Y-13986722D02*
X12625424Y-13967674D01*
X12625424Y-13967674D02*
X12644472Y-13958150D01*
X12644472Y-13958150D02*
X12673043Y-13958150D01*
X12673043Y-13958150D02*
X12692091Y-13967674D01*
X12692091Y-13967674D02*
X12701615Y-13986722D01*
X12701615Y-13986722D02*
X12701615Y-14091484D01*
X13092091Y-13881960D02*
X12920663Y-14139103D01*
X13349234Y-13891484D02*
X13368282Y-13891484D01*
X13368282Y-13891484D02*
X13387329Y-13901008D01*
X13387329Y-13901008D02*
X13396853Y-13910531D01*
X13396853Y-13910531D02*
X13406377Y-13929579D01*
X13406377Y-13929579D02*
X13415901Y-13967674D01*
X13415901Y-13967674D02*
X13415901Y-14015293D01*
X13415901Y-14015293D02*
X13406377Y-14053388D01*
X13406377Y-14053388D02*
X13396853Y-14072436D01*
X13396853Y-14072436D02*
X13387329Y-14081960D01*
X13387329Y-14081960D02*
X13368282Y-14091484D01*
X13368282Y-14091484D02*
X13349234Y-14091484D01*
X13349234Y-14091484D02*
X13330186Y-14081960D01*
X13330186Y-14081960D02*
X13320663Y-14072436D01*
X13320663Y-14072436D02*
X13311139Y-14053388D01*
X13311139Y-14053388D02*
X13301615Y-14015293D01*
X13301615Y-14015293D02*
X13301615Y-13967674D01*
X13301615Y-13967674D02*
X13311139Y-13929579D01*
X13311139Y-13929579D02*
X13320663Y-13910531D01*
X13320663Y-13910531D02*
X13330186Y-13901008D01*
X13330186Y-13901008D02*
X13349234Y-13891484D01*
X13501615Y-14072436D02*
X13511139Y-14081960D01*
X13511139Y-14081960D02*
X13501615Y-14091484D01*
X13501615Y-14091484D02*
X13492091Y-14081960D01*
X13492091Y-14081960D02*
X13501615Y-14072436D01*
X13501615Y-14072436D02*
X13501615Y-14091484D01*
X13634948Y-13891484D02*
X13653996Y-13891484D01*
X13653996Y-13891484D02*
X13673044Y-13901008D01*
X13673044Y-13901008D02*
X13682567Y-13910531D01*
X13682567Y-13910531D02*
X13692091Y-13929579D01*
X13692091Y-13929579D02*
X13701615Y-13967674D01*
X13701615Y-13967674D02*
X13701615Y-14015293D01*
X13701615Y-14015293D02*
X13692091Y-14053388D01*
X13692091Y-14053388D02*
X13682567Y-14072436D01*
X13682567Y-14072436D02*
X13673044Y-14081960D01*
X13673044Y-14081960D02*
X13653996Y-14091484D01*
X13653996Y-14091484D02*
X13634948Y-14091484D01*
X13634948Y-14091484D02*
X13615901Y-14081960D01*
X13615901Y-14081960D02*
X13606377Y-14072436D01*
X13606377Y-14072436D02*
X13596853Y-14053388D01*
X13596853Y-14053388D02*
X13587329Y-14015293D01*
X13587329Y-14015293D02*
X13587329Y-13967674D01*
X13587329Y-13967674D02*
X13596853Y-13929579D01*
X13596853Y-13929579D02*
X13606377Y-13910531D01*
X13606377Y-13910531D02*
X13615901Y-13901008D01*
X13615901Y-13901008D02*
X13634948Y-13891484D01*
X13768282Y-13891484D02*
X13892091Y-13891484D01*
X13892091Y-13891484D02*
X13825425Y-13967674D01*
X13825425Y-13967674D02*
X13853996Y-13967674D01*
X13853996Y-13967674D02*
X13873044Y-13977198D01*
X13873044Y-13977198D02*
X13882567Y-13986722D01*
X13882567Y-13986722D02*
X13892091Y-14005769D01*
X13892091Y-14005769D02*
X13892091Y-14053388D01*
X13892091Y-14053388D02*
X13882567Y-14072436D01*
X13882567Y-14072436D02*
X13873044Y-14081960D01*
X13873044Y-14081960D02*
X13853996Y-14091484D01*
X13853996Y-14091484D02*
X13796853Y-14091484D01*
X13796853Y-14091484D02*
X13777806Y-14081960D01*
X13777806Y-14081960D02*
X13768282Y-14072436D01*
X14082567Y-14091484D02*
X13968282Y-14091484D01*
X14025425Y-14091484D02*
X14025425Y-13891484D01*
X14025425Y-13891484D02*
X14006377Y-13920055D01*
X14006377Y-13920055D02*
X13987329Y-13939103D01*
X13987329Y-13939103D02*
X13968282Y-13948627D01*
X14263520Y-13891484D02*
X14168282Y-13891484D01*
X14168282Y-13891484D02*
X14158758Y-13986722D01*
X14158758Y-13986722D02*
X14168282Y-13977198D01*
X14168282Y-13977198D02*
X14187329Y-13967674D01*
X14187329Y-13967674D02*
X14234948Y-13967674D01*
X14234948Y-13967674D02*
X14253996Y-13977198D01*
X14253996Y-13977198D02*
X14263520Y-13986722D01*
X14263520Y-13986722D02*
X14273044Y-14005769D01*
X14273044Y-14005769D02*
X14273044Y-14053388D01*
X14273044Y-14053388D02*
X14263520Y-14072436D01*
X14263520Y-14072436D02*
X14253996Y-14081960D01*
X14253996Y-14081960D02*
X14234948Y-14091484D01*
X14234948Y-14091484D02*
X14187329Y-14091484D01*
X14187329Y-14091484D02*
X14168282Y-14081960D01*
X14168282Y-14081960D02*
X14158758Y-14072436D01*
X14349234Y-13891484D02*
X14349234Y-13929579D01*
X14425425Y-13891484D02*
X14425425Y-13929579D01*
X14720663Y-14167674D02*
X14711139Y-14158150D01*
X14711139Y-14158150D02*
X14692091Y-14129579D01*
X14692091Y-14129579D02*
X14682568Y-14110531D01*
X14682568Y-14110531D02*
X14673044Y-14081960D01*
X14673044Y-14081960D02*
X14663520Y-14034341D01*
X14663520Y-14034341D02*
X14663520Y-13996246D01*
X14663520Y-13996246D02*
X14673044Y-13948627D01*
X14673044Y-13948627D02*
X14682568Y-13920055D01*
X14682568Y-13920055D02*
X14692091Y-13901008D01*
X14692091Y-13901008D02*
X14711139Y-13872436D01*
X14711139Y-13872436D02*
X14720663Y-13862912D01*
X14882568Y-13958150D02*
X14882568Y-14091484D01*
X14834948Y-13881960D02*
X14787329Y-14024817D01*
X14787329Y-14024817D02*
X14911139Y-14024817D01*
X15139710Y-14091484D02*
X15139710Y-13891484D01*
X15225425Y-14091484D02*
X15225425Y-13986722D01*
X15225425Y-13986722D02*
X15215901Y-13967674D01*
X15215901Y-13967674D02*
X15196853Y-13958150D01*
X15196853Y-13958150D02*
X15168282Y-13958150D01*
X15168282Y-13958150D02*
X15149234Y-13967674D01*
X15149234Y-13967674D02*
X15139710Y-13977198D01*
X15349234Y-14091484D02*
X15330187Y-14081960D01*
X15330187Y-14081960D02*
X15320663Y-14072436D01*
X15320663Y-14072436D02*
X15311139Y-14053388D01*
X15311139Y-14053388D02*
X15311139Y-13996246D01*
X15311139Y-13996246D02*
X15320663Y-13977198D01*
X15320663Y-13977198D02*
X15330187Y-13967674D01*
X15330187Y-13967674D02*
X15349234Y-13958150D01*
X15349234Y-13958150D02*
X15377806Y-13958150D01*
X15377806Y-13958150D02*
X15396853Y-13967674D01*
X15396853Y-13967674D02*
X15406377Y-13977198D01*
X15406377Y-13977198D02*
X15415901Y-13996246D01*
X15415901Y-13996246D02*
X15415901Y-14053388D01*
X15415901Y-14053388D02*
X15406377Y-14072436D01*
X15406377Y-14072436D02*
X15396853Y-14081960D01*
X15396853Y-14081960D02*
X15377806Y-14091484D01*
X15377806Y-14091484D02*
X15349234Y-14091484D01*
X15530187Y-14091484D02*
X15511139Y-14081960D01*
X15511139Y-14081960D02*
X15501615Y-14062912D01*
X15501615Y-14062912D02*
X15501615Y-13891484D01*
X15682568Y-14081960D02*
X15663520Y-14091484D01*
X15663520Y-14091484D02*
X15625425Y-14091484D01*
X15625425Y-14091484D02*
X15606377Y-14081960D01*
X15606377Y-14081960D02*
X15596853Y-14062912D01*
X15596853Y-14062912D02*
X15596853Y-13986722D01*
X15596853Y-13986722D02*
X15606377Y-13967674D01*
X15606377Y-13967674D02*
X15625425Y-13958150D01*
X15625425Y-13958150D02*
X15663520Y-13958150D01*
X15663520Y-13958150D02*
X15682568Y-13967674D01*
X15682568Y-13967674D02*
X15692091Y-13986722D01*
X15692091Y-13986722D02*
X15692091Y-14005769D01*
X15692091Y-14005769D02*
X15596853Y-14024817D01*
X15768282Y-14081960D02*
X15787330Y-14091484D01*
X15787330Y-14091484D02*
X15825425Y-14091484D01*
X15825425Y-14091484D02*
X15844472Y-14081960D01*
X15844472Y-14081960D02*
X15853996Y-14062912D01*
X15853996Y-14062912D02*
X15853996Y-14053388D01*
X15853996Y-14053388D02*
X15844472Y-14034341D01*
X15844472Y-14034341D02*
X15825425Y-14024817D01*
X15825425Y-14024817D02*
X15796853Y-14024817D01*
X15796853Y-14024817D02*
X15777806Y-14015293D01*
X15777806Y-14015293D02*
X15768282Y-13996246D01*
X15768282Y-13996246D02*
X15768282Y-13986722D01*
X15768282Y-13986722D02*
X15777806Y-13967674D01*
X15777806Y-13967674D02*
X15796853Y-13958150D01*
X15796853Y-13958150D02*
X15825425Y-13958150D01*
X15825425Y-13958150D02*
X15844472Y-13967674D01*
X15920663Y-14167674D02*
X15930187Y-14158150D01*
X15930187Y-14158150D02*
X15949234Y-14129579D01*
X15949234Y-14129579D02*
X15958758Y-14110531D01*
X15958758Y-14110531D02*
X15968282Y-14081960D01*
X15968282Y-14081960D02*
X15977806Y-14034341D01*
X15977806Y-14034341D02*
X15977806Y-13996246D01*
X15977806Y-13996246D02*
X15968282Y-13948627D01*
X15968282Y-13948627D02*
X15958758Y-13920055D01*
X15958758Y-13920055D02*
X15949234Y-13901008D01*
X15949234Y-13901008D02*
X15930187Y-13872436D01*
X15930187Y-13872436D02*
X15920663Y-13862912D01*
D10*
X11132420Y-14295820D02*
X11132420Y-14232180D01*
X11068780Y-14232180D01*
X11068780Y-14295820D01*
X11132420Y-14295820D01*
D11*
X11444472Y-14155484D02*
X11463520Y-14155484D01*
X11463520Y-14155484D02*
X11482567Y-14165008D01*
X11482567Y-14165008D02*
X11492091Y-14174531D01*
X11492091Y-14174531D02*
X11501615Y-14193579D01*
X11501615Y-14193579D02*
X11511139Y-14231674D01*
X11511139Y-14231674D02*
X11511139Y-14279293D01*
X11511139Y-14279293D02*
X11501615Y-14317388D01*
X11501615Y-14317388D02*
X11492091Y-14336436D01*
X11492091Y-14336436D02*
X11482567Y-14345960D01*
X11482567Y-14345960D02*
X11463520Y-14355484D01*
X11463520Y-14355484D02*
X11444472Y-14355484D01*
X11444472Y-14355484D02*
X11425424Y-14345960D01*
X11425424Y-14345960D02*
X11415901Y-14336436D01*
X11415901Y-14336436D02*
X11406377Y-14317388D01*
X11406377Y-14317388D02*
X11396853Y-14279293D01*
X11396853Y-14279293D02*
X11396853Y-14231674D01*
X11396853Y-14231674D02*
X11406377Y-14193579D01*
X11406377Y-14193579D02*
X11415901Y-14174531D01*
X11415901Y-14174531D02*
X11425424Y-14165008D01*
X11425424Y-14165008D02*
X11444472Y-14155484D01*
X11596853Y-14336436D02*
X11606377Y-14345960D01*
X11606377Y-14345960D02*
X11596853Y-14355484D01*
X11596853Y-14355484D02*
X11587329Y-14345960D01*
X11587329Y-14345960D02*
X11596853Y-14336436D01*
X11596853Y-14336436D02*
X11596853Y-14355484D01*
X11701615Y-14355484D02*
X11739710Y-14355484D01*
X11739710Y-14355484D02*
X11758758Y-14345960D01*
X11758758Y-14345960D02*
X11768282Y-14336436D01*
X11768282Y-14336436D02*
X11787329Y-14307865D01*
X11787329Y-14307865D02*
X11796853Y-14269769D01*
X11796853Y-14269769D02*
X11796853Y-14193579D01*
X11796853Y-14193579D02*
X11787329Y-14174531D01*
X11787329Y-14174531D02*
X11777805Y-14165008D01*
X11777805Y-14165008D02*
X11758758Y-14155484D01*
X11758758Y-14155484D02*
X11720662Y-14155484D01*
X11720662Y-14155484D02*
X11701615Y-14165008D01*
X11701615Y-14165008D02*
X11692091Y-14174531D01*
X11692091Y-14174531D02*
X11682567Y-14193579D01*
X11682567Y-14193579D02*
X11682567Y-14241198D01*
X11682567Y-14241198D02*
X11692091Y-14260246D01*
X11692091Y-14260246D02*
X11701615Y-14269769D01*
X11701615Y-14269769D02*
X11720662Y-14279293D01*
X11720662Y-14279293D02*
X11758758Y-14279293D01*
X11758758Y-14279293D02*
X11777805Y-14269769D01*
X11777805Y-14269769D02*
X11787329Y-14260246D01*
X11787329Y-14260246D02*
X11796853Y-14241198D01*
X11920662Y-14155484D02*
X11939710Y-14155484D01*
X11939710Y-14155484D02*
X11958758Y-14165008D01*
X11958758Y-14165008D02*
X11968282Y-14174531D01*
X11968282Y-14174531D02*
X11977805Y-14193579D01*
X11977805Y-14193579D02*
X11987329Y-14231674D01*
X11987329Y-14231674D02*
X11987329Y-14279293D01*
X11987329Y-14279293D02*
X11977805Y-14317388D01*
X11977805Y-14317388D02*
X11968282Y-14336436D01*
X11968282Y-14336436D02*
X11958758Y-14345960D01*
X11958758Y-14345960D02*
X11939710Y-14355484D01*
X11939710Y-14355484D02*
X11920662Y-14355484D01*
X11920662Y-14355484D02*
X11901615Y-14345960D01*
X11901615Y-14345960D02*
X11892091Y-14336436D01*
X11892091Y-14336436D02*
X11882567Y-14317388D01*
X11882567Y-14317388D02*
X11873043Y-14279293D01*
X11873043Y-14279293D02*
X11873043Y-14231674D01*
X11873043Y-14231674D02*
X11882567Y-14193579D01*
X11882567Y-14193579D02*
X11892091Y-14174531D01*
X11892091Y-14174531D02*
X11901615Y-14165008D01*
X11901615Y-14165008D02*
X11920662Y-14155484D01*
X12111139Y-14155484D02*
X12130186Y-14155484D01*
X12130186Y-14155484D02*
X12149234Y-14165008D01*
X12149234Y-14165008D02*
X12158758Y-14174531D01*
X12158758Y-14174531D02*
X12168282Y-14193579D01*
X12168282Y-14193579D02*
X12177805Y-14231674D01*
X12177805Y-14231674D02*
X12177805Y-14279293D01*
X12177805Y-14279293D02*
X12168282Y-14317388D01*
X12168282Y-14317388D02*
X12158758Y-14336436D01*
X12158758Y-14336436D02*
X12149234Y-14345960D01*
X12149234Y-14345960D02*
X12130186Y-14355484D01*
X12130186Y-14355484D02*
X12111139Y-14355484D01*
X12111139Y-14355484D02*
X12092091Y-14345960D01*
X12092091Y-14345960D02*
X12082567Y-14336436D01*
X12082567Y-14336436D02*
X12073043Y-14317388D01*
X12073043Y-14317388D02*
X12063520Y-14279293D01*
X12063520Y-14279293D02*
X12063520Y-14231674D01*
X12063520Y-14231674D02*
X12073043Y-14193579D01*
X12073043Y-14193579D02*
X12082567Y-14174531D01*
X12082567Y-14174531D02*
X12092091Y-14165008D01*
X12092091Y-14165008D02*
X12111139Y-14155484D01*
X12263520Y-14355484D02*
X12263520Y-14222150D01*
X12263520Y-14241198D02*
X12273043Y-14231674D01*
X12273043Y-14231674D02*
X12292091Y-14222150D01*
X12292091Y-14222150D02*
X12320663Y-14222150D01*
X12320663Y-14222150D02*
X12339710Y-14231674D01*
X12339710Y-14231674D02*
X12349234Y-14250722D01*
X12349234Y-14250722D02*
X12349234Y-14355484D01*
X12349234Y-14250722D02*
X12358758Y-14231674D01*
X12358758Y-14231674D02*
X12377805Y-14222150D01*
X12377805Y-14222150D02*
X12406377Y-14222150D01*
X12406377Y-14222150D02*
X12425424Y-14231674D01*
X12425424Y-14231674D02*
X12434948Y-14250722D01*
X12434948Y-14250722D02*
X12434948Y-14355484D01*
X12530186Y-14355484D02*
X12530186Y-14222150D01*
X12530186Y-14241198D02*
X12539710Y-14231674D01*
X12539710Y-14231674D02*
X12558758Y-14222150D01*
X12558758Y-14222150D02*
X12587329Y-14222150D01*
X12587329Y-14222150D02*
X12606377Y-14231674D01*
X12606377Y-14231674D02*
X12615901Y-14250722D01*
X12615901Y-14250722D02*
X12615901Y-14355484D01*
X12615901Y-14250722D02*
X12625424Y-14231674D01*
X12625424Y-14231674D02*
X12644472Y-14222150D01*
X12644472Y-14222150D02*
X12673043Y-14222150D01*
X12673043Y-14222150D02*
X12692091Y-14231674D01*
X12692091Y-14231674D02*
X12701615Y-14250722D01*
X12701615Y-14250722D02*
X12701615Y-14355484D01*
X13092091Y-14145960D02*
X12920663Y-14403103D01*
X13349234Y-14155484D02*
X13368282Y-14155484D01*
X13368282Y-14155484D02*
X13387329Y-14165008D01*
X13387329Y-14165008D02*
X13396853Y-14174531D01*
X13396853Y-14174531D02*
X13406377Y-14193579D01*
X13406377Y-14193579D02*
X13415901Y-14231674D01*
X13415901Y-14231674D02*
X13415901Y-14279293D01*
X13415901Y-14279293D02*
X13406377Y-14317388D01*
X13406377Y-14317388D02*
X13396853Y-14336436D01*
X13396853Y-14336436D02*
X13387329Y-14345960D01*
X13387329Y-14345960D02*
X13368282Y-14355484D01*
X13368282Y-14355484D02*
X13349234Y-14355484D01*
X13349234Y-14355484D02*
X13330186Y-14345960D01*
X13330186Y-14345960D02*
X13320663Y-14336436D01*
X13320663Y-14336436D02*
X13311139Y-14317388D01*
X13311139Y-14317388D02*
X13301615Y-14279293D01*
X13301615Y-14279293D02*
X13301615Y-14231674D01*
X13301615Y-14231674D02*
X13311139Y-14193579D01*
X13311139Y-14193579D02*
X13320663Y-14174531D01*
X13320663Y-14174531D02*
X13330186Y-14165008D01*
X13330186Y-14165008D02*
X13349234Y-14155484D01*
X13501615Y-14336436D02*
X13511139Y-14345960D01*
X13511139Y-14345960D02*
X13501615Y-14355484D01*
X13501615Y-14355484D02*
X13492091Y-14345960D01*
X13492091Y-14345960D02*
X13501615Y-14336436D01*
X13501615Y-14336436D02*
X13501615Y-14355484D01*
X13634948Y-14155484D02*
X13653996Y-14155484D01*
X13653996Y-14155484D02*
X13673044Y-14165008D01*
X13673044Y-14165008D02*
X13682567Y-14174531D01*
X13682567Y-14174531D02*
X13692091Y-14193579D01*
X13692091Y-14193579D02*
X13701615Y-14231674D01*
X13701615Y-14231674D02*
X13701615Y-14279293D01*
X13701615Y-14279293D02*
X13692091Y-14317388D01*
X13692091Y-14317388D02*
X13682567Y-14336436D01*
X13682567Y-14336436D02*
X13673044Y-14345960D01*
X13673044Y-14345960D02*
X13653996Y-14355484D01*
X13653996Y-14355484D02*
X13634948Y-14355484D01*
X13634948Y-14355484D02*
X13615901Y-14345960D01*
X13615901Y-14345960D02*
X13606377Y-14336436D01*
X13606377Y-14336436D02*
X13596853Y-14317388D01*
X13596853Y-14317388D02*
X13587329Y-14279293D01*
X13587329Y-14279293D02*
X13587329Y-14231674D01*
X13587329Y-14231674D02*
X13596853Y-14193579D01*
X13596853Y-14193579D02*
X13606377Y-14174531D01*
X13606377Y-14174531D02*
X13615901Y-14165008D01*
X13615901Y-14165008D02*
X13634948Y-14155484D01*
X13768282Y-14155484D02*
X13892091Y-14155484D01*
X13892091Y-14155484D02*
X13825425Y-14231674D01*
X13825425Y-14231674D02*
X13853996Y-14231674D01*
X13853996Y-14231674D02*
X13873044Y-14241198D01*
X13873044Y-14241198D02*
X13882567Y-14250722D01*
X13882567Y-14250722D02*
X13892091Y-14269769D01*
X13892091Y-14269769D02*
X13892091Y-14317388D01*
X13892091Y-14317388D02*
X13882567Y-14336436D01*
X13882567Y-14336436D02*
X13873044Y-14345960D01*
X13873044Y-14345960D02*
X13853996Y-14355484D01*
X13853996Y-14355484D02*
X13796853Y-14355484D01*
X13796853Y-14355484D02*
X13777806Y-14345960D01*
X13777806Y-14345960D02*
X13768282Y-14336436D01*
X14073044Y-14155484D02*
X13977806Y-14155484D01*
X13977806Y-14155484D02*
X13968282Y-14250722D01*
X13968282Y-14250722D02*
X13977806Y-14241198D01*
X13977806Y-14241198D02*
X13996853Y-14231674D01*
X13996853Y-14231674D02*
X14044472Y-14231674D01*
X14044472Y-14231674D02*
X14063520Y-14241198D01*
X14063520Y-14241198D02*
X14073044Y-14250722D01*
X14073044Y-14250722D02*
X14082567Y-14269769D01*
X14082567Y-14269769D02*
X14082567Y-14317388D01*
X14082567Y-14317388D02*
X14073044Y-14336436D01*
X14073044Y-14336436D02*
X14063520Y-14345960D01*
X14063520Y-14345960D02*
X14044472Y-14355484D01*
X14044472Y-14355484D02*
X13996853Y-14355484D01*
X13996853Y-14355484D02*
X13977806Y-14345960D01*
X13977806Y-14345960D02*
X13968282Y-14336436D01*
X14253996Y-14222150D02*
X14253996Y-14355484D01*
X14206377Y-14145960D02*
X14158758Y-14288817D01*
X14158758Y-14288817D02*
X14282567Y-14288817D01*
X14349234Y-14155484D02*
X14349234Y-14193579D01*
X14425425Y-14155484D02*
X14425425Y-14193579D01*
X14720663Y-14431674D02*
X14711139Y-14422150D01*
X14711139Y-14422150D02*
X14692091Y-14393579D01*
X14692091Y-14393579D02*
X14682568Y-14374531D01*
X14682568Y-14374531D02*
X14673044Y-14345960D01*
X14673044Y-14345960D02*
X14663520Y-14298341D01*
X14663520Y-14298341D02*
X14663520Y-14260246D01*
X14663520Y-14260246D02*
X14673044Y-14212627D01*
X14673044Y-14212627D02*
X14682568Y-14184055D01*
X14682568Y-14184055D02*
X14692091Y-14165008D01*
X14692091Y-14165008D02*
X14711139Y-14136436D01*
X14711139Y-14136436D02*
X14720663Y-14126912D01*
X14882568Y-14222150D02*
X14882568Y-14355484D01*
X14834948Y-14145960D02*
X14787329Y-14288817D01*
X14787329Y-14288817D02*
X14911139Y-14288817D01*
X15139710Y-14355484D02*
X15139710Y-14155484D01*
X15225425Y-14355484D02*
X15225425Y-14250722D01*
X15225425Y-14250722D02*
X15215901Y-14231674D01*
X15215901Y-14231674D02*
X15196853Y-14222150D01*
X15196853Y-14222150D02*
X15168282Y-14222150D01*
X15168282Y-14222150D02*
X15149234Y-14231674D01*
X15149234Y-14231674D02*
X15139710Y-14241198D01*
X15349234Y-14355484D02*
X15330187Y-14345960D01*
X15330187Y-14345960D02*
X15320663Y-14336436D01*
X15320663Y-14336436D02*
X15311139Y-14317388D01*
X15311139Y-14317388D02*
X15311139Y-14260246D01*
X15311139Y-14260246D02*
X15320663Y-14241198D01*
X15320663Y-14241198D02*
X15330187Y-14231674D01*
X15330187Y-14231674D02*
X15349234Y-14222150D01*
X15349234Y-14222150D02*
X15377806Y-14222150D01*
X15377806Y-14222150D02*
X15396853Y-14231674D01*
X15396853Y-14231674D02*
X15406377Y-14241198D01*
X15406377Y-14241198D02*
X15415901Y-14260246D01*
X15415901Y-14260246D02*
X15415901Y-14317388D01*
X15415901Y-14317388D02*
X15406377Y-14336436D01*
X15406377Y-14336436D02*
X15396853Y-14345960D01*
X15396853Y-14345960D02*
X15377806Y-14355484D01*
X15377806Y-14355484D02*
X15349234Y-14355484D01*
X15530187Y-14355484D02*
X15511139Y-14345960D01*
X15511139Y-14345960D02*
X15501615Y-14326912D01*
X15501615Y-14326912D02*
X15501615Y-14155484D01*
X15682568Y-14345960D02*
X15663520Y-14355484D01*
X15663520Y-14355484D02*
X15625425Y-14355484D01*
X15625425Y-14355484D02*
X15606377Y-14345960D01*
X15606377Y-14345960D02*
X15596853Y-14326912D01*
X15596853Y-14326912D02*
X15596853Y-14250722D01*
X15596853Y-14250722D02*
X15606377Y-14231674D01*
X15606377Y-14231674D02*
X15625425Y-14222150D01*
X15625425Y-14222150D02*
X15663520Y-14222150D01*
X15663520Y-14222150D02*
X15682568Y-14231674D01*
X15682568Y-14231674D02*
X15692091Y-14250722D01*
X15692091Y-14250722D02*
X15692091Y-14269769D01*
X15692091Y-14269769D02*
X15596853Y-14288817D01*
X15768282Y-14345960D02*
X15787330Y-14355484D01*
X15787330Y-14355484D02*
X15825425Y-14355484D01*
X15825425Y-14355484D02*
X15844472Y-14345960D01*
X15844472Y-14345960D02*
X15853996Y-14326912D01*
X15853996Y-14326912D02*
X15853996Y-14317388D01*
X15853996Y-14317388D02*
X15844472Y-14298341D01*
X15844472Y-14298341D02*
X15825425Y-14288817D01*
X15825425Y-14288817D02*
X15796853Y-14288817D01*
X15796853Y-14288817D02*
X15777806Y-14279293D01*
X15777806Y-14279293D02*
X15768282Y-14260246D01*
X15768282Y-14260246D02*
X15768282Y-14250722D01*
X15768282Y-14250722D02*
X15777806Y-14231674D01*
X15777806Y-14231674D02*
X15796853Y-14222150D01*
X15796853Y-14222150D02*
X15825425Y-14222150D01*
X15825425Y-14222150D02*
X15844472Y-14231674D01*
X15920663Y-14431674D02*
X15930187Y-14422150D01*
X15930187Y-14422150D02*
X15949234Y-14393579D01*
X15949234Y-14393579D02*
X15958758Y-14374531D01*
X15958758Y-14374531D02*
X15968282Y-14345960D01*
X15968282Y-14345960D02*
X15977806Y-14298341D01*
X15977806Y-14298341D02*
X15977806Y-14260246D01*
X15977806Y-14260246D02*
X15968282Y-14212627D01*
X15968282Y-14212627D02*
X15958758Y-14184055D01*
X15958758Y-14184055D02*
X15949234Y-14165008D01*
X15949234Y-14165008D02*
X15930187Y-14136436D01*
X15930187Y-14136436D02*
X15920663Y-14126912D01*
D10*
X11095600Y-14578000D02*
X11145600Y-14528000D01*
X11095600Y-14478000D01*
X11045600Y-14528000D01*
X11095600Y-14578000D01*
D11*
X11511139Y-14619484D02*
X11396853Y-14619484D01*
X11453996Y-14619484D02*
X11453996Y-14419484D01*
X11453996Y-14419484D02*
X11434948Y-14448055D01*
X11434948Y-14448055D02*
X11415901Y-14467103D01*
X11415901Y-14467103D02*
X11396853Y-14476627D01*
X11596853Y-14600436D02*
X11606377Y-14609960D01*
X11606377Y-14609960D02*
X11596853Y-14619484D01*
X11596853Y-14619484D02*
X11587329Y-14609960D01*
X11587329Y-14609960D02*
X11596853Y-14600436D01*
X11596853Y-14600436D02*
X11596853Y-14619484D01*
X11730186Y-14419484D02*
X11749234Y-14419484D01*
X11749234Y-14419484D02*
X11768282Y-14429008D01*
X11768282Y-14429008D02*
X11777805Y-14438531D01*
X11777805Y-14438531D02*
X11787329Y-14457579D01*
X11787329Y-14457579D02*
X11796853Y-14495674D01*
X11796853Y-14495674D02*
X11796853Y-14543293D01*
X11796853Y-14543293D02*
X11787329Y-14581388D01*
X11787329Y-14581388D02*
X11777805Y-14600436D01*
X11777805Y-14600436D02*
X11768282Y-14609960D01*
X11768282Y-14609960D02*
X11749234Y-14619484D01*
X11749234Y-14619484D02*
X11730186Y-14619484D01*
X11730186Y-14619484D02*
X11711139Y-14609960D01*
X11711139Y-14609960D02*
X11701615Y-14600436D01*
X11701615Y-14600436D02*
X11692091Y-14581388D01*
X11692091Y-14581388D02*
X11682567Y-14543293D01*
X11682567Y-14543293D02*
X11682567Y-14495674D01*
X11682567Y-14495674D02*
X11692091Y-14457579D01*
X11692091Y-14457579D02*
X11701615Y-14438531D01*
X11701615Y-14438531D02*
X11711139Y-14429008D01*
X11711139Y-14429008D02*
X11730186Y-14419484D01*
X11920662Y-14419484D02*
X11939710Y-14419484D01*
X11939710Y-14419484D02*
X11958758Y-14429008D01*
X11958758Y-14429008D02*
X11968282Y-14438531D01*
X11968282Y-14438531D02*
X11977805Y-14457579D01*
X11977805Y-14457579D02*
X11987329Y-14495674D01*
X11987329Y-14495674D02*
X11987329Y-14543293D01*
X11987329Y-14543293D02*
X11977805Y-14581388D01*
X11977805Y-14581388D02*
X11968282Y-14600436D01*
X11968282Y-14600436D02*
X11958758Y-14609960D01*
X11958758Y-14609960D02*
X11939710Y-14619484D01*
X11939710Y-14619484D02*
X11920662Y-14619484D01*
X11920662Y-14619484D02*
X11901615Y-14609960D01*
X11901615Y-14609960D02*
X11892091Y-14600436D01*
X11892091Y-14600436D02*
X11882567Y-14581388D01*
X11882567Y-14581388D02*
X11873043Y-14543293D01*
X11873043Y-14543293D02*
X11873043Y-14495674D01*
X11873043Y-14495674D02*
X11882567Y-14457579D01*
X11882567Y-14457579D02*
X11892091Y-14438531D01*
X11892091Y-14438531D02*
X11901615Y-14429008D01*
X11901615Y-14429008D02*
X11920662Y-14419484D01*
X12111139Y-14419484D02*
X12130186Y-14419484D01*
X12130186Y-14419484D02*
X12149234Y-14429008D01*
X12149234Y-14429008D02*
X12158758Y-14438531D01*
X12158758Y-14438531D02*
X12168282Y-14457579D01*
X12168282Y-14457579D02*
X12177805Y-14495674D01*
X12177805Y-14495674D02*
X12177805Y-14543293D01*
X12177805Y-14543293D02*
X12168282Y-14581388D01*
X12168282Y-14581388D02*
X12158758Y-14600436D01*
X12158758Y-14600436D02*
X12149234Y-14609960D01*
X12149234Y-14609960D02*
X12130186Y-14619484D01*
X12130186Y-14619484D02*
X12111139Y-14619484D01*
X12111139Y-14619484D02*
X12092091Y-14609960D01*
X12092091Y-14609960D02*
X12082567Y-14600436D01*
X12082567Y-14600436D02*
X12073043Y-14581388D01*
X12073043Y-14581388D02*
X12063520Y-14543293D01*
X12063520Y-14543293D02*
X12063520Y-14495674D01*
X12063520Y-14495674D02*
X12073043Y-14457579D01*
X12073043Y-14457579D02*
X12082567Y-14438531D01*
X12082567Y-14438531D02*
X12092091Y-14429008D01*
X12092091Y-14429008D02*
X12111139Y-14419484D01*
X12263520Y-14619484D02*
X12263520Y-14486150D01*
X12263520Y-14505198D02*
X12273043Y-14495674D01*
X12273043Y-14495674D02*
X12292091Y-14486150D01*
X12292091Y-14486150D02*
X12320663Y-14486150D01*
X12320663Y-14486150D02*
X12339710Y-14495674D01*
X12339710Y-14495674D02*
X12349234Y-14514722D01*
X12349234Y-14514722D02*
X12349234Y-14619484D01*
X12349234Y-14514722D02*
X12358758Y-14495674D01*
X12358758Y-14495674D02*
X12377805Y-14486150D01*
X12377805Y-14486150D02*
X12406377Y-14486150D01*
X12406377Y-14486150D02*
X12425424Y-14495674D01*
X12425424Y-14495674D02*
X12434948Y-14514722D01*
X12434948Y-14514722D02*
X12434948Y-14619484D01*
X12530186Y-14619484D02*
X12530186Y-14486150D01*
X12530186Y-14505198D02*
X12539710Y-14495674D01*
X12539710Y-14495674D02*
X12558758Y-14486150D01*
X12558758Y-14486150D02*
X12587329Y-14486150D01*
X12587329Y-14486150D02*
X12606377Y-14495674D01*
X12606377Y-14495674D02*
X12615901Y-14514722D01*
X12615901Y-14514722D02*
X12615901Y-14619484D01*
X12615901Y-14514722D02*
X12625424Y-14495674D01*
X12625424Y-14495674D02*
X12644472Y-14486150D01*
X12644472Y-14486150D02*
X12673043Y-14486150D01*
X12673043Y-14486150D02*
X12692091Y-14495674D01*
X12692091Y-14495674D02*
X12701615Y-14514722D01*
X12701615Y-14514722D02*
X12701615Y-14619484D01*
X13092091Y-14409960D02*
X12920663Y-14667103D01*
X13349234Y-14419484D02*
X13368282Y-14419484D01*
X13368282Y-14419484D02*
X13387329Y-14429008D01*
X13387329Y-14429008D02*
X13396853Y-14438531D01*
X13396853Y-14438531D02*
X13406377Y-14457579D01*
X13406377Y-14457579D02*
X13415901Y-14495674D01*
X13415901Y-14495674D02*
X13415901Y-14543293D01*
X13415901Y-14543293D02*
X13406377Y-14581388D01*
X13406377Y-14581388D02*
X13396853Y-14600436D01*
X13396853Y-14600436D02*
X13387329Y-14609960D01*
X13387329Y-14609960D02*
X13368282Y-14619484D01*
X13368282Y-14619484D02*
X13349234Y-14619484D01*
X13349234Y-14619484D02*
X13330186Y-14609960D01*
X13330186Y-14609960D02*
X13320663Y-14600436D01*
X13320663Y-14600436D02*
X13311139Y-14581388D01*
X13311139Y-14581388D02*
X13301615Y-14543293D01*
X13301615Y-14543293D02*
X13301615Y-14495674D01*
X13301615Y-14495674D02*
X13311139Y-14457579D01*
X13311139Y-14457579D02*
X13320663Y-14438531D01*
X13320663Y-14438531D02*
X13330186Y-14429008D01*
X13330186Y-14429008D02*
X13349234Y-14419484D01*
X13501615Y-14600436D02*
X13511139Y-14609960D01*
X13511139Y-14609960D02*
X13501615Y-14619484D01*
X13501615Y-14619484D02*
X13492091Y-14609960D01*
X13492091Y-14609960D02*
X13501615Y-14600436D01*
X13501615Y-14600436D02*
X13501615Y-14619484D01*
X13634948Y-14419484D02*
X13653996Y-14419484D01*
X13653996Y-14419484D02*
X13673044Y-14429008D01*
X13673044Y-14429008D02*
X13682567Y-14438531D01*
X13682567Y-14438531D02*
X13692091Y-14457579D01*
X13692091Y-14457579D02*
X13701615Y-14495674D01*
X13701615Y-14495674D02*
X13701615Y-14543293D01*
X13701615Y-14543293D02*
X13692091Y-14581388D01*
X13692091Y-14581388D02*
X13682567Y-14600436D01*
X13682567Y-14600436D02*
X13673044Y-14609960D01*
X13673044Y-14609960D02*
X13653996Y-14619484D01*
X13653996Y-14619484D02*
X13634948Y-14619484D01*
X13634948Y-14619484D02*
X13615901Y-14609960D01*
X13615901Y-14609960D02*
X13606377Y-14600436D01*
X13606377Y-14600436D02*
X13596853Y-14581388D01*
X13596853Y-14581388D02*
X13587329Y-14543293D01*
X13587329Y-14543293D02*
X13587329Y-14495674D01*
X13587329Y-14495674D02*
X13596853Y-14457579D01*
X13596853Y-14457579D02*
X13606377Y-14438531D01*
X13606377Y-14438531D02*
X13615901Y-14429008D01*
X13615901Y-14429008D02*
X13634948Y-14419484D01*
X13768282Y-14419484D02*
X13892091Y-14419484D01*
X13892091Y-14419484D02*
X13825425Y-14495674D01*
X13825425Y-14495674D02*
X13853996Y-14495674D01*
X13853996Y-14495674D02*
X13873044Y-14505198D01*
X13873044Y-14505198D02*
X13882567Y-14514722D01*
X13882567Y-14514722D02*
X13892091Y-14533769D01*
X13892091Y-14533769D02*
X13892091Y-14581388D01*
X13892091Y-14581388D02*
X13882567Y-14600436D01*
X13882567Y-14600436D02*
X13873044Y-14609960D01*
X13873044Y-14609960D02*
X13853996Y-14619484D01*
X13853996Y-14619484D02*
X13796853Y-14619484D01*
X13796853Y-14619484D02*
X13777806Y-14609960D01*
X13777806Y-14609960D02*
X13768282Y-14600436D01*
X13987329Y-14619484D02*
X14025425Y-14619484D01*
X14025425Y-14619484D02*
X14044472Y-14609960D01*
X14044472Y-14609960D02*
X14053996Y-14600436D01*
X14053996Y-14600436D02*
X14073044Y-14571865D01*
X14073044Y-14571865D02*
X14082567Y-14533769D01*
X14082567Y-14533769D02*
X14082567Y-14457579D01*
X14082567Y-14457579D02*
X14073044Y-14438531D01*
X14073044Y-14438531D02*
X14063520Y-14429008D01*
X14063520Y-14429008D02*
X14044472Y-14419484D01*
X14044472Y-14419484D02*
X14006377Y-14419484D01*
X14006377Y-14419484D02*
X13987329Y-14429008D01*
X13987329Y-14429008D02*
X13977806Y-14438531D01*
X13977806Y-14438531D02*
X13968282Y-14457579D01*
X13968282Y-14457579D02*
X13968282Y-14505198D01*
X13968282Y-14505198D02*
X13977806Y-14524246D01*
X13977806Y-14524246D02*
X13987329Y-14533769D01*
X13987329Y-14533769D02*
X14006377Y-14543293D01*
X14006377Y-14543293D02*
X14044472Y-14543293D01*
X14044472Y-14543293D02*
X14063520Y-14533769D01*
X14063520Y-14533769D02*
X14073044Y-14524246D01*
X14073044Y-14524246D02*
X14082567Y-14505198D01*
X14253996Y-14486150D02*
X14253996Y-14619484D01*
X14206377Y-14409960D02*
X14158758Y-14552817D01*
X14158758Y-14552817D02*
X14282567Y-14552817D01*
X14349234Y-14419484D02*
X14349234Y-14457579D01*
X14425425Y-14419484D02*
X14425425Y-14457579D01*
X14720663Y-14695674D02*
X14711139Y-14686150D01*
X14711139Y-14686150D02*
X14692091Y-14657579D01*
X14692091Y-14657579D02*
X14682568Y-14638531D01*
X14682568Y-14638531D02*
X14673044Y-14609960D01*
X14673044Y-14609960D02*
X14663520Y-14562341D01*
X14663520Y-14562341D02*
X14663520Y-14524246D01*
X14663520Y-14524246D02*
X14673044Y-14476627D01*
X14673044Y-14476627D02*
X14682568Y-14448055D01*
X14682568Y-14448055D02*
X14692091Y-14429008D01*
X14692091Y-14429008D02*
X14711139Y-14400436D01*
X14711139Y-14400436D02*
X14720663Y-14390912D01*
X14882568Y-14486150D02*
X14882568Y-14619484D01*
X14834948Y-14409960D02*
X14787329Y-14552817D01*
X14787329Y-14552817D02*
X14911139Y-14552817D01*
X15092091Y-14619484D02*
X14977806Y-14619484D01*
X15034948Y-14619484D02*
X15034948Y-14419484D01*
X15034948Y-14419484D02*
X15015901Y-14448055D01*
X15015901Y-14448055D02*
X14996853Y-14467103D01*
X14996853Y-14467103D02*
X14977806Y-14476627D01*
X15330187Y-14619484D02*
X15330187Y-14419484D01*
X15415901Y-14619484D02*
X15415901Y-14514722D01*
X15415901Y-14514722D02*
X15406377Y-14495674D01*
X15406377Y-14495674D02*
X15387330Y-14486150D01*
X15387330Y-14486150D02*
X15358758Y-14486150D01*
X15358758Y-14486150D02*
X15339710Y-14495674D01*
X15339710Y-14495674D02*
X15330187Y-14505198D01*
X15539710Y-14619484D02*
X15520663Y-14609960D01*
X15520663Y-14609960D02*
X15511139Y-14600436D01*
X15511139Y-14600436D02*
X15501615Y-14581388D01*
X15501615Y-14581388D02*
X15501615Y-14524246D01*
X15501615Y-14524246D02*
X15511139Y-14505198D01*
X15511139Y-14505198D02*
X15520663Y-14495674D01*
X15520663Y-14495674D02*
X15539710Y-14486150D01*
X15539710Y-14486150D02*
X15568282Y-14486150D01*
X15568282Y-14486150D02*
X15587330Y-14495674D01*
X15587330Y-14495674D02*
X15596853Y-14505198D01*
X15596853Y-14505198D02*
X15606377Y-14524246D01*
X15606377Y-14524246D02*
X15606377Y-14581388D01*
X15606377Y-14581388D02*
X15596853Y-14600436D01*
X15596853Y-14600436D02*
X15587330Y-14609960D01*
X15587330Y-14609960D02*
X15568282Y-14619484D01*
X15568282Y-14619484D02*
X15539710Y-14619484D01*
X15720663Y-14619484D02*
X15701615Y-14609960D01*
X15701615Y-14609960D02*
X15692091Y-14590912D01*
X15692091Y-14590912D02*
X15692091Y-14419484D01*
X15873044Y-14609960D02*
X15853996Y-14619484D01*
X15853996Y-14619484D02*
X15815901Y-14619484D01*
X15815901Y-14619484D02*
X15796853Y-14609960D01*
X15796853Y-14609960D02*
X15787330Y-14590912D01*
X15787330Y-14590912D02*
X15787330Y-14514722D01*
X15787330Y-14514722D02*
X15796853Y-14495674D01*
X15796853Y-14495674D02*
X15815901Y-14486150D01*
X15815901Y-14486150D02*
X15853996Y-14486150D01*
X15853996Y-14486150D02*
X15873044Y-14495674D01*
X15873044Y-14495674D02*
X15882568Y-14514722D01*
X15882568Y-14514722D02*
X15882568Y-14533769D01*
X15882568Y-14533769D02*
X15787330Y-14552817D01*
X15958758Y-14609960D02*
X15977806Y-14619484D01*
X15977806Y-14619484D02*
X16015901Y-14619484D01*
X16015901Y-14619484D02*
X16034949Y-14609960D01*
X16034949Y-14609960D02*
X16044472Y-14590912D01*
X16044472Y-14590912D02*
X16044472Y-14581388D01*
X16044472Y-14581388D02*
X16034949Y-14562341D01*
X16034949Y-14562341D02*
X16015901Y-14552817D01*
X16015901Y-14552817D02*
X15987330Y-14552817D01*
X15987330Y-14552817D02*
X15968282Y-14543293D01*
X15968282Y-14543293D02*
X15958758Y-14524246D01*
X15958758Y-14524246D02*
X15958758Y-14514722D01*
X15958758Y-14514722D02*
X15968282Y-14495674D01*
X15968282Y-14495674D02*
X15987330Y-14486150D01*
X15987330Y-14486150D02*
X16015901Y-14486150D01*
X16015901Y-14486150D02*
X16034949Y-14495674D01*
X16111139Y-14695674D02*
X16120663Y-14686150D01*
X16120663Y-14686150D02*
X16139711Y-14657579D01*
X16139711Y-14657579D02*
X16149234Y-14638531D01*
X16149234Y-14638531D02*
X16158758Y-14609960D01*
X16158758Y-14609960D02*
X16168282Y-14562341D01*
X16168282Y-14562341D02*
X16168282Y-14524246D01*
X16168282Y-14524246D02*
X16158758Y-14476627D01*
X16158758Y-14476627D02*
X16149234Y-14448055D01*
X16149234Y-14448055D02*
X16139711Y-14429008D01*
X16139711Y-14429008D02*
X16120663Y-14400436D01*
X16120663Y-14400436D02*
X16111139Y-14390912D01*
D12*
X11035600Y-14737000D02*
X11145600Y-14847000D01*
X11145600Y-14737000D02*
X11035600Y-14847000D01*
X11145600Y-14792000D02*
G75*
G03*
X11145600Y-14792000I-55000J0D01*
G01*
D11*
X11511139Y-14883484D02*
X11396853Y-14883484D01*
X11453996Y-14883484D02*
X11453996Y-14683484D01*
X11453996Y-14683484D02*
X11434948Y-14712055D01*
X11434948Y-14712055D02*
X11415901Y-14731103D01*
X11415901Y-14731103D02*
X11396853Y-14740627D01*
X11596853Y-14864436D02*
X11606377Y-14873960D01*
X11606377Y-14873960D02*
X11596853Y-14883484D01*
X11596853Y-14883484D02*
X11587329Y-14873960D01*
X11587329Y-14873960D02*
X11596853Y-14864436D01*
X11596853Y-14864436D02*
X11596853Y-14883484D01*
X11796853Y-14883484D02*
X11682567Y-14883484D01*
X11739710Y-14883484D02*
X11739710Y-14683484D01*
X11739710Y-14683484D02*
X11720662Y-14712055D01*
X11720662Y-14712055D02*
X11701615Y-14731103D01*
X11701615Y-14731103D02*
X11682567Y-14740627D01*
X11920662Y-14683484D02*
X11939710Y-14683484D01*
X11939710Y-14683484D02*
X11958758Y-14693008D01*
X11958758Y-14693008D02*
X11968282Y-14702531D01*
X11968282Y-14702531D02*
X11977805Y-14721579D01*
X11977805Y-14721579D02*
X11987329Y-14759674D01*
X11987329Y-14759674D02*
X11987329Y-14807293D01*
X11987329Y-14807293D02*
X11977805Y-14845388D01*
X11977805Y-14845388D02*
X11968282Y-14864436D01*
X11968282Y-14864436D02*
X11958758Y-14873960D01*
X11958758Y-14873960D02*
X11939710Y-14883484D01*
X11939710Y-14883484D02*
X11920662Y-14883484D01*
X11920662Y-14883484D02*
X11901615Y-14873960D01*
X11901615Y-14873960D02*
X11892091Y-14864436D01*
X11892091Y-14864436D02*
X11882567Y-14845388D01*
X11882567Y-14845388D02*
X11873043Y-14807293D01*
X11873043Y-14807293D02*
X11873043Y-14759674D01*
X11873043Y-14759674D02*
X11882567Y-14721579D01*
X11882567Y-14721579D02*
X11892091Y-14702531D01*
X11892091Y-14702531D02*
X11901615Y-14693008D01*
X11901615Y-14693008D02*
X11920662Y-14683484D01*
X12111139Y-14683484D02*
X12130186Y-14683484D01*
X12130186Y-14683484D02*
X12149234Y-14693008D01*
X12149234Y-14693008D02*
X12158758Y-14702531D01*
X12158758Y-14702531D02*
X12168282Y-14721579D01*
X12168282Y-14721579D02*
X12177805Y-14759674D01*
X12177805Y-14759674D02*
X12177805Y-14807293D01*
X12177805Y-14807293D02*
X12168282Y-14845388D01*
X12168282Y-14845388D02*
X12158758Y-14864436D01*
X12158758Y-14864436D02*
X12149234Y-14873960D01*
X12149234Y-14873960D02*
X12130186Y-14883484D01*
X12130186Y-14883484D02*
X12111139Y-14883484D01*
X12111139Y-14883484D02*
X12092091Y-14873960D01*
X12092091Y-14873960D02*
X12082567Y-14864436D01*
X12082567Y-14864436D02*
X12073043Y-14845388D01*
X12073043Y-14845388D02*
X12063520Y-14807293D01*
X12063520Y-14807293D02*
X12063520Y-14759674D01*
X12063520Y-14759674D02*
X12073043Y-14721579D01*
X12073043Y-14721579D02*
X12082567Y-14702531D01*
X12082567Y-14702531D02*
X12092091Y-14693008D01*
X12092091Y-14693008D02*
X12111139Y-14683484D01*
X12263520Y-14883484D02*
X12263520Y-14750150D01*
X12263520Y-14769198D02*
X12273043Y-14759674D01*
X12273043Y-14759674D02*
X12292091Y-14750150D01*
X12292091Y-14750150D02*
X12320663Y-14750150D01*
X12320663Y-14750150D02*
X12339710Y-14759674D01*
X12339710Y-14759674D02*
X12349234Y-14778722D01*
X12349234Y-14778722D02*
X12349234Y-14883484D01*
X12349234Y-14778722D02*
X12358758Y-14759674D01*
X12358758Y-14759674D02*
X12377805Y-14750150D01*
X12377805Y-14750150D02*
X12406377Y-14750150D01*
X12406377Y-14750150D02*
X12425424Y-14759674D01*
X12425424Y-14759674D02*
X12434948Y-14778722D01*
X12434948Y-14778722D02*
X12434948Y-14883484D01*
X12530186Y-14883484D02*
X12530186Y-14750150D01*
X12530186Y-14769198D02*
X12539710Y-14759674D01*
X12539710Y-14759674D02*
X12558758Y-14750150D01*
X12558758Y-14750150D02*
X12587329Y-14750150D01*
X12587329Y-14750150D02*
X12606377Y-14759674D01*
X12606377Y-14759674D02*
X12615901Y-14778722D01*
X12615901Y-14778722D02*
X12615901Y-14883484D01*
X12615901Y-14778722D02*
X12625424Y-14759674D01*
X12625424Y-14759674D02*
X12644472Y-14750150D01*
X12644472Y-14750150D02*
X12673043Y-14750150D01*
X12673043Y-14750150D02*
X12692091Y-14759674D01*
X12692091Y-14759674D02*
X12701615Y-14778722D01*
X12701615Y-14778722D02*
X12701615Y-14883484D01*
X13092091Y-14673960D02*
X12920663Y-14931103D01*
X13349234Y-14683484D02*
X13368282Y-14683484D01*
X13368282Y-14683484D02*
X13387329Y-14693008D01*
X13387329Y-14693008D02*
X13396853Y-14702531D01*
X13396853Y-14702531D02*
X13406377Y-14721579D01*
X13406377Y-14721579D02*
X13415901Y-14759674D01*
X13415901Y-14759674D02*
X13415901Y-14807293D01*
X13415901Y-14807293D02*
X13406377Y-14845388D01*
X13406377Y-14845388D02*
X13396853Y-14864436D01*
X13396853Y-14864436D02*
X13387329Y-14873960D01*
X13387329Y-14873960D02*
X13368282Y-14883484D01*
X13368282Y-14883484D02*
X13349234Y-14883484D01*
X13349234Y-14883484D02*
X13330186Y-14873960D01*
X13330186Y-14873960D02*
X13320663Y-14864436D01*
X13320663Y-14864436D02*
X13311139Y-14845388D01*
X13311139Y-14845388D02*
X13301615Y-14807293D01*
X13301615Y-14807293D02*
X13301615Y-14759674D01*
X13301615Y-14759674D02*
X13311139Y-14721579D01*
X13311139Y-14721579D02*
X13320663Y-14702531D01*
X13320663Y-14702531D02*
X13330186Y-14693008D01*
X13330186Y-14693008D02*
X13349234Y-14683484D01*
X13501615Y-14864436D02*
X13511139Y-14873960D01*
X13511139Y-14873960D02*
X13501615Y-14883484D01*
X13501615Y-14883484D02*
X13492091Y-14873960D01*
X13492091Y-14873960D02*
X13501615Y-14864436D01*
X13501615Y-14864436D02*
X13501615Y-14883484D01*
X13634948Y-14683484D02*
X13653996Y-14683484D01*
X13653996Y-14683484D02*
X13673044Y-14693008D01*
X13673044Y-14693008D02*
X13682567Y-14702531D01*
X13682567Y-14702531D02*
X13692091Y-14721579D01*
X13692091Y-14721579D02*
X13701615Y-14759674D01*
X13701615Y-14759674D02*
X13701615Y-14807293D01*
X13701615Y-14807293D02*
X13692091Y-14845388D01*
X13692091Y-14845388D02*
X13682567Y-14864436D01*
X13682567Y-14864436D02*
X13673044Y-14873960D01*
X13673044Y-14873960D02*
X13653996Y-14883484D01*
X13653996Y-14883484D02*
X13634948Y-14883484D01*
X13634948Y-14883484D02*
X13615901Y-14873960D01*
X13615901Y-14873960D02*
X13606377Y-14864436D01*
X13606377Y-14864436D02*
X13596853Y-14845388D01*
X13596853Y-14845388D02*
X13587329Y-14807293D01*
X13587329Y-14807293D02*
X13587329Y-14759674D01*
X13587329Y-14759674D02*
X13596853Y-14721579D01*
X13596853Y-14721579D02*
X13606377Y-14702531D01*
X13606377Y-14702531D02*
X13615901Y-14693008D01*
X13615901Y-14693008D02*
X13634948Y-14683484D01*
X13873044Y-14750150D02*
X13873044Y-14883484D01*
X13825425Y-14673960D02*
X13777806Y-14816817D01*
X13777806Y-14816817D02*
X13901615Y-14816817D01*
X13958758Y-14683484D02*
X14082567Y-14683484D01*
X14082567Y-14683484D02*
X14015901Y-14759674D01*
X14015901Y-14759674D02*
X14044472Y-14759674D01*
X14044472Y-14759674D02*
X14063520Y-14769198D01*
X14063520Y-14769198D02*
X14073044Y-14778722D01*
X14073044Y-14778722D02*
X14082567Y-14797769D01*
X14082567Y-14797769D02*
X14082567Y-14845388D01*
X14082567Y-14845388D02*
X14073044Y-14864436D01*
X14073044Y-14864436D02*
X14063520Y-14873960D01*
X14063520Y-14873960D02*
X14044472Y-14883484D01*
X14044472Y-14883484D02*
X13987329Y-14883484D01*
X13987329Y-14883484D02*
X13968282Y-14873960D01*
X13968282Y-14873960D02*
X13958758Y-14864436D01*
X14149234Y-14683484D02*
X14273044Y-14683484D01*
X14273044Y-14683484D02*
X14206377Y-14759674D01*
X14206377Y-14759674D02*
X14234948Y-14759674D01*
X14234948Y-14759674D02*
X14253996Y-14769198D01*
X14253996Y-14769198D02*
X14263520Y-14778722D01*
X14263520Y-14778722D02*
X14273044Y-14797769D01*
X14273044Y-14797769D02*
X14273044Y-14845388D01*
X14273044Y-14845388D02*
X14263520Y-14864436D01*
X14263520Y-14864436D02*
X14253996Y-14873960D01*
X14253996Y-14873960D02*
X14234948Y-14883484D01*
X14234948Y-14883484D02*
X14177806Y-14883484D01*
X14177806Y-14883484D02*
X14158758Y-14873960D01*
X14158758Y-14873960D02*
X14149234Y-14864436D01*
X14349234Y-14683484D02*
X14349234Y-14721579D01*
X14425425Y-14683484D02*
X14425425Y-14721579D01*
X14720663Y-14959674D02*
X14711139Y-14950150D01*
X14711139Y-14950150D02*
X14692091Y-14921579D01*
X14692091Y-14921579D02*
X14682568Y-14902531D01*
X14682568Y-14902531D02*
X14673044Y-14873960D01*
X14673044Y-14873960D02*
X14663520Y-14826341D01*
X14663520Y-14826341D02*
X14663520Y-14788246D01*
X14663520Y-14788246D02*
X14673044Y-14740627D01*
X14673044Y-14740627D02*
X14682568Y-14712055D01*
X14682568Y-14712055D02*
X14692091Y-14693008D01*
X14692091Y-14693008D02*
X14711139Y-14664436D01*
X14711139Y-14664436D02*
X14720663Y-14654912D01*
X14882568Y-14750150D02*
X14882568Y-14883484D01*
X14834948Y-14673960D02*
X14787329Y-14816817D01*
X14787329Y-14816817D02*
X14911139Y-14816817D01*
X15139710Y-14883484D02*
X15139710Y-14683484D01*
X15225425Y-14883484D02*
X15225425Y-14778722D01*
X15225425Y-14778722D02*
X15215901Y-14759674D01*
X15215901Y-14759674D02*
X15196853Y-14750150D01*
X15196853Y-14750150D02*
X15168282Y-14750150D01*
X15168282Y-14750150D02*
X15149234Y-14759674D01*
X15149234Y-14759674D02*
X15139710Y-14769198D01*
X15349234Y-14883484D02*
X15330187Y-14873960D01*
X15330187Y-14873960D02*
X15320663Y-14864436D01*
X15320663Y-14864436D02*
X15311139Y-14845388D01*
X15311139Y-14845388D02*
X15311139Y-14788246D01*
X15311139Y-14788246D02*
X15320663Y-14769198D01*
X15320663Y-14769198D02*
X15330187Y-14759674D01*
X15330187Y-14759674D02*
X15349234Y-14750150D01*
X15349234Y-14750150D02*
X15377806Y-14750150D01*
X15377806Y-14750150D02*
X15396853Y-14759674D01*
X15396853Y-14759674D02*
X15406377Y-14769198D01*
X15406377Y-14769198D02*
X15415901Y-14788246D01*
X15415901Y-14788246D02*
X15415901Y-14845388D01*
X15415901Y-14845388D02*
X15406377Y-14864436D01*
X15406377Y-14864436D02*
X15396853Y-14873960D01*
X15396853Y-14873960D02*
X15377806Y-14883484D01*
X15377806Y-14883484D02*
X15349234Y-14883484D01*
X15530187Y-14883484D02*
X15511139Y-14873960D01*
X15511139Y-14873960D02*
X15501615Y-14854912D01*
X15501615Y-14854912D02*
X15501615Y-14683484D01*
X15682568Y-14873960D02*
X15663520Y-14883484D01*
X15663520Y-14883484D02*
X15625425Y-14883484D01*
X15625425Y-14883484D02*
X15606377Y-14873960D01*
X15606377Y-14873960D02*
X15596853Y-14854912D01*
X15596853Y-14854912D02*
X15596853Y-14778722D01*
X15596853Y-14778722D02*
X15606377Y-14759674D01*
X15606377Y-14759674D02*
X15625425Y-14750150D01*
X15625425Y-14750150D02*
X15663520Y-14750150D01*
X15663520Y-14750150D02*
X15682568Y-14759674D01*
X15682568Y-14759674D02*
X15692091Y-14778722D01*
X15692091Y-14778722D02*
X15692091Y-14797769D01*
X15692091Y-14797769D02*
X15596853Y-14816817D01*
X15768282Y-14873960D02*
X15787330Y-14883484D01*
X15787330Y-14883484D02*
X15825425Y-14883484D01*
X15825425Y-14883484D02*
X15844472Y-14873960D01*
X15844472Y-14873960D02*
X15853996Y-14854912D01*
X15853996Y-14854912D02*
X15853996Y-14845388D01*
X15853996Y-14845388D02*
X15844472Y-14826341D01*
X15844472Y-14826341D02*
X15825425Y-14816817D01*
X15825425Y-14816817D02*
X15796853Y-14816817D01*
X15796853Y-14816817D02*
X15777806Y-14807293D01*
X15777806Y-14807293D02*
X15768282Y-14788246D01*
X15768282Y-14788246D02*
X15768282Y-14778722D01*
X15768282Y-14778722D02*
X15777806Y-14759674D01*
X15777806Y-14759674D02*
X15796853Y-14750150D01*
X15796853Y-14750150D02*
X15825425Y-14750150D01*
X15825425Y-14750150D02*
X15844472Y-14759674D01*
X15920663Y-14959674D02*
X15930187Y-14950150D01*
X15930187Y-14950150D02*
X15949234Y-14921579D01*
X15949234Y-14921579D02*
X15958758Y-14902531D01*
X15958758Y-14902531D02*
X15968282Y-14873960D01*
X15968282Y-14873960D02*
X15977806Y-14826341D01*
X15977806Y-14826341D02*
X15977806Y-14788246D01*
X15977806Y-14788246D02*
X15968282Y-14740627D01*
X15968282Y-14740627D02*
X15958758Y-14712055D01*
X15958758Y-14712055D02*
X15949234Y-14693008D01*
X15949234Y-14693008D02*
X15930187Y-14664436D01*
X15930187Y-14664436D02*
X15920663Y-14654912D01*
D13*
X10995600Y-14981000D02*
X11145600Y-15131000D01*
X11145600Y-14981000D02*
X10995600Y-15131000D01*
X11070600Y-14981000D02*
X11070600Y-15131000D01*
X10995600Y-15056000D02*
X11145600Y-15056000D01*
D11*
X11511139Y-15147484D02*
X11396853Y-15147484D01*
X11453996Y-15147484D02*
X11453996Y-14947484D01*
X11453996Y-14947484D02*
X11434948Y-14976055D01*
X11434948Y-14976055D02*
X11415901Y-14995103D01*
X11415901Y-14995103D02*
X11396853Y-15004627D01*
X11596853Y-15128436D02*
X11606377Y-15137960D01*
X11606377Y-15137960D02*
X11596853Y-15147484D01*
X11596853Y-15147484D02*
X11587329Y-15137960D01*
X11587329Y-15137960D02*
X11596853Y-15128436D01*
X11596853Y-15128436D02*
X11596853Y-15147484D01*
X11787329Y-14947484D02*
X11692091Y-14947484D01*
X11692091Y-14947484D02*
X11682567Y-15042722D01*
X11682567Y-15042722D02*
X11692091Y-15033198D01*
X11692091Y-15033198D02*
X11711139Y-15023674D01*
X11711139Y-15023674D02*
X11758758Y-15023674D01*
X11758758Y-15023674D02*
X11777805Y-15033198D01*
X11777805Y-15033198D02*
X11787329Y-15042722D01*
X11787329Y-15042722D02*
X11796853Y-15061769D01*
X11796853Y-15061769D02*
X11796853Y-15109388D01*
X11796853Y-15109388D02*
X11787329Y-15128436D01*
X11787329Y-15128436D02*
X11777805Y-15137960D01*
X11777805Y-15137960D02*
X11758758Y-15147484D01*
X11758758Y-15147484D02*
X11711139Y-15147484D01*
X11711139Y-15147484D02*
X11692091Y-15137960D01*
X11692091Y-15137960D02*
X11682567Y-15128436D01*
X11920662Y-14947484D02*
X11939710Y-14947484D01*
X11939710Y-14947484D02*
X11958758Y-14957008D01*
X11958758Y-14957008D02*
X11968282Y-14966531D01*
X11968282Y-14966531D02*
X11977805Y-14985579D01*
X11977805Y-14985579D02*
X11987329Y-15023674D01*
X11987329Y-15023674D02*
X11987329Y-15071293D01*
X11987329Y-15071293D02*
X11977805Y-15109388D01*
X11977805Y-15109388D02*
X11968282Y-15128436D01*
X11968282Y-15128436D02*
X11958758Y-15137960D01*
X11958758Y-15137960D02*
X11939710Y-15147484D01*
X11939710Y-15147484D02*
X11920662Y-15147484D01*
X11920662Y-15147484D02*
X11901615Y-15137960D01*
X11901615Y-15137960D02*
X11892091Y-15128436D01*
X11892091Y-15128436D02*
X11882567Y-15109388D01*
X11882567Y-15109388D02*
X11873043Y-15071293D01*
X11873043Y-15071293D02*
X11873043Y-15023674D01*
X11873043Y-15023674D02*
X11882567Y-14985579D01*
X11882567Y-14985579D02*
X11892091Y-14966531D01*
X11892091Y-14966531D02*
X11901615Y-14957008D01*
X11901615Y-14957008D02*
X11920662Y-14947484D01*
X12111139Y-14947484D02*
X12130186Y-14947484D01*
X12130186Y-14947484D02*
X12149234Y-14957008D01*
X12149234Y-14957008D02*
X12158758Y-14966531D01*
X12158758Y-14966531D02*
X12168282Y-14985579D01*
X12168282Y-14985579D02*
X12177805Y-15023674D01*
X12177805Y-15023674D02*
X12177805Y-15071293D01*
X12177805Y-15071293D02*
X12168282Y-15109388D01*
X12168282Y-15109388D02*
X12158758Y-15128436D01*
X12158758Y-15128436D02*
X12149234Y-15137960D01*
X12149234Y-15137960D02*
X12130186Y-15147484D01*
X12130186Y-15147484D02*
X12111139Y-15147484D01*
X12111139Y-15147484D02*
X12092091Y-15137960D01*
X12092091Y-15137960D02*
X12082567Y-15128436D01*
X12082567Y-15128436D02*
X12073043Y-15109388D01*
X12073043Y-15109388D02*
X12063520Y-15071293D01*
X12063520Y-15071293D02*
X12063520Y-15023674D01*
X12063520Y-15023674D02*
X12073043Y-14985579D01*
X12073043Y-14985579D02*
X12082567Y-14966531D01*
X12082567Y-14966531D02*
X12092091Y-14957008D01*
X12092091Y-14957008D02*
X12111139Y-14947484D01*
X12263520Y-15147484D02*
X12263520Y-15014150D01*
X12263520Y-15033198D02*
X12273043Y-15023674D01*
X12273043Y-15023674D02*
X12292091Y-15014150D01*
X12292091Y-15014150D02*
X12320663Y-15014150D01*
X12320663Y-15014150D02*
X12339710Y-15023674D01*
X12339710Y-15023674D02*
X12349234Y-15042722D01*
X12349234Y-15042722D02*
X12349234Y-15147484D01*
X12349234Y-15042722D02*
X12358758Y-15023674D01*
X12358758Y-15023674D02*
X12377805Y-15014150D01*
X12377805Y-15014150D02*
X12406377Y-15014150D01*
X12406377Y-15014150D02*
X12425424Y-15023674D01*
X12425424Y-15023674D02*
X12434948Y-15042722D01*
X12434948Y-15042722D02*
X12434948Y-15147484D01*
X12530186Y-15147484D02*
X12530186Y-15014150D01*
X12530186Y-15033198D02*
X12539710Y-15023674D01*
X12539710Y-15023674D02*
X12558758Y-15014150D01*
X12558758Y-15014150D02*
X12587329Y-15014150D01*
X12587329Y-15014150D02*
X12606377Y-15023674D01*
X12606377Y-15023674D02*
X12615901Y-15042722D01*
X12615901Y-15042722D02*
X12615901Y-15147484D01*
X12615901Y-15042722D02*
X12625424Y-15023674D01*
X12625424Y-15023674D02*
X12644472Y-15014150D01*
X12644472Y-15014150D02*
X12673043Y-15014150D01*
X12673043Y-15014150D02*
X12692091Y-15023674D01*
X12692091Y-15023674D02*
X12701615Y-15042722D01*
X12701615Y-15042722D02*
X12701615Y-15147484D01*
X13092091Y-14937960D02*
X12920663Y-15195103D01*
X13349234Y-14947484D02*
X13368282Y-14947484D01*
X13368282Y-14947484D02*
X13387329Y-14957008D01*
X13387329Y-14957008D02*
X13396853Y-14966531D01*
X13396853Y-14966531D02*
X13406377Y-14985579D01*
X13406377Y-14985579D02*
X13415901Y-15023674D01*
X13415901Y-15023674D02*
X13415901Y-15071293D01*
X13415901Y-15071293D02*
X13406377Y-15109388D01*
X13406377Y-15109388D02*
X13396853Y-15128436D01*
X13396853Y-15128436D02*
X13387329Y-15137960D01*
X13387329Y-15137960D02*
X13368282Y-15147484D01*
X13368282Y-15147484D02*
X13349234Y-15147484D01*
X13349234Y-15147484D02*
X13330186Y-15137960D01*
X13330186Y-15137960D02*
X13320663Y-15128436D01*
X13320663Y-15128436D02*
X13311139Y-15109388D01*
X13311139Y-15109388D02*
X13301615Y-15071293D01*
X13301615Y-15071293D02*
X13301615Y-15023674D01*
X13301615Y-15023674D02*
X13311139Y-14985579D01*
X13311139Y-14985579D02*
X13320663Y-14966531D01*
X13320663Y-14966531D02*
X13330186Y-14957008D01*
X13330186Y-14957008D02*
X13349234Y-14947484D01*
X13501615Y-15128436D02*
X13511139Y-15137960D01*
X13511139Y-15137960D02*
X13501615Y-15147484D01*
X13501615Y-15147484D02*
X13492091Y-15137960D01*
X13492091Y-15137960D02*
X13501615Y-15128436D01*
X13501615Y-15128436D02*
X13501615Y-15147484D01*
X13634948Y-14947484D02*
X13653996Y-14947484D01*
X13653996Y-14947484D02*
X13673044Y-14957008D01*
X13673044Y-14957008D02*
X13682567Y-14966531D01*
X13682567Y-14966531D02*
X13692091Y-14985579D01*
X13692091Y-14985579D02*
X13701615Y-15023674D01*
X13701615Y-15023674D02*
X13701615Y-15071293D01*
X13701615Y-15071293D02*
X13692091Y-15109388D01*
X13692091Y-15109388D02*
X13682567Y-15128436D01*
X13682567Y-15128436D02*
X13673044Y-15137960D01*
X13673044Y-15137960D02*
X13653996Y-15147484D01*
X13653996Y-15147484D02*
X13634948Y-15147484D01*
X13634948Y-15147484D02*
X13615901Y-15137960D01*
X13615901Y-15137960D02*
X13606377Y-15128436D01*
X13606377Y-15128436D02*
X13596853Y-15109388D01*
X13596853Y-15109388D02*
X13587329Y-15071293D01*
X13587329Y-15071293D02*
X13587329Y-15023674D01*
X13587329Y-15023674D02*
X13596853Y-14985579D01*
X13596853Y-14985579D02*
X13606377Y-14966531D01*
X13606377Y-14966531D02*
X13615901Y-14957008D01*
X13615901Y-14957008D02*
X13634948Y-14947484D01*
X13882567Y-14947484D02*
X13787329Y-14947484D01*
X13787329Y-14947484D02*
X13777806Y-15042722D01*
X13777806Y-15042722D02*
X13787329Y-15033198D01*
X13787329Y-15033198D02*
X13806377Y-15023674D01*
X13806377Y-15023674D02*
X13853996Y-15023674D01*
X13853996Y-15023674D02*
X13873044Y-15033198D01*
X13873044Y-15033198D02*
X13882567Y-15042722D01*
X13882567Y-15042722D02*
X13892091Y-15061769D01*
X13892091Y-15061769D02*
X13892091Y-15109388D01*
X13892091Y-15109388D02*
X13882567Y-15128436D01*
X13882567Y-15128436D02*
X13873044Y-15137960D01*
X13873044Y-15137960D02*
X13853996Y-15147484D01*
X13853996Y-15147484D02*
X13806377Y-15147484D01*
X13806377Y-15147484D02*
X13787329Y-15137960D01*
X13787329Y-15137960D02*
X13777806Y-15128436D01*
X13987329Y-15147484D02*
X14025425Y-15147484D01*
X14025425Y-15147484D02*
X14044472Y-15137960D01*
X14044472Y-15137960D02*
X14053996Y-15128436D01*
X14053996Y-15128436D02*
X14073044Y-15099865D01*
X14073044Y-15099865D02*
X14082567Y-15061769D01*
X14082567Y-15061769D02*
X14082567Y-14985579D01*
X14082567Y-14985579D02*
X14073044Y-14966531D01*
X14073044Y-14966531D02*
X14063520Y-14957008D01*
X14063520Y-14957008D02*
X14044472Y-14947484D01*
X14044472Y-14947484D02*
X14006377Y-14947484D01*
X14006377Y-14947484D02*
X13987329Y-14957008D01*
X13987329Y-14957008D02*
X13977806Y-14966531D01*
X13977806Y-14966531D02*
X13968282Y-14985579D01*
X13968282Y-14985579D02*
X13968282Y-15033198D01*
X13968282Y-15033198D02*
X13977806Y-15052246D01*
X13977806Y-15052246D02*
X13987329Y-15061769D01*
X13987329Y-15061769D02*
X14006377Y-15071293D01*
X14006377Y-15071293D02*
X14044472Y-15071293D01*
X14044472Y-15071293D02*
X14063520Y-15061769D01*
X14063520Y-15061769D02*
X14073044Y-15052246D01*
X14073044Y-15052246D02*
X14082567Y-15033198D01*
X14273044Y-15147484D02*
X14158758Y-15147484D01*
X14215901Y-15147484D02*
X14215901Y-14947484D01*
X14215901Y-14947484D02*
X14196853Y-14976055D01*
X14196853Y-14976055D02*
X14177806Y-14995103D01*
X14177806Y-14995103D02*
X14158758Y-15004627D01*
X14349234Y-14947484D02*
X14349234Y-14985579D01*
X14425425Y-14947484D02*
X14425425Y-14985579D01*
X14720663Y-15223674D02*
X14711139Y-15214150D01*
X14711139Y-15214150D02*
X14692091Y-15185579D01*
X14692091Y-15185579D02*
X14682568Y-15166531D01*
X14682568Y-15166531D02*
X14673044Y-15137960D01*
X14673044Y-15137960D02*
X14663520Y-15090341D01*
X14663520Y-15090341D02*
X14663520Y-15052246D01*
X14663520Y-15052246D02*
X14673044Y-15004627D01*
X14673044Y-15004627D02*
X14682568Y-14976055D01*
X14682568Y-14976055D02*
X14692091Y-14957008D01*
X14692091Y-14957008D02*
X14711139Y-14928436D01*
X14711139Y-14928436D02*
X14720663Y-14918912D01*
X14834948Y-14947484D02*
X14853996Y-14947484D01*
X14853996Y-14947484D02*
X14873044Y-14957008D01*
X14873044Y-14957008D02*
X14882568Y-14966531D01*
X14882568Y-14966531D02*
X14892091Y-14985579D01*
X14892091Y-14985579D02*
X14901615Y-15023674D01*
X14901615Y-15023674D02*
X14901615Y-15071293D01*
X14901615Y-15071293D02*
X14892091Y-15109388D01*
X14892091Y-15109388D02*
X14882568Y-15128436D01*
X14882568Y-15128436D02*
X14873044Y-15137960D01*
X14873044Y-15137960D02*
X14853996Y-15147484D01*
X14853996Y-15147484D02*
X14834948Y-15147484D01*
X14834948Y-15147484D02*
X14815901Y-15137960D01*
X14815901Y-15137960D02*
X14806377Y-15128436D01*
X14806377Y-15128436D02*
X14796853Y-15109388D01*
X14796853Y-15109388D02*
X14787329Y-15071293D01*
X14787329Y-15071293D02*
X14787329Y-15023674D01*
X14787329Y-15023674D02*
X14796853Y-14985579D01*
X14796853Y-14985579D02*
X14806377Y-14966531D01*
X14806377Y-14966531D02*
X14815901Y-14957008D01*
X14815901Y-14957008D02*
X14834948Y-14947484D01*
X15139710Y-15147484D02*
X15139710Y-14947484D01*
X15225425Y-15147484D02*
X15225425Y-15042722D01*
X15225425Y-15042722D02*
X15215901Y-15023674D01*
X15215901Y-15023674D02*
X15196853Y-15014150D01*
X15196853Y-15014150D02*
X15168282Y-15014150D01*
X15168282Y-15014150D02*
X15149234Y-15023674D01*
X15149234Y-15023674D02*
X15139710Y-15033198D01*
X15349234Y-15147484D02*
X15330187Y-15137960D01*
X15330187Y-15137960D02*
X15320663Y-15128436D01*
X15320663Y-15128436D02*
X15311139Y-15109388D01*
X15311139Y-15109388D02*
X15311139Y-15052246D01*
X15311139Y-15052246D02*
X15320663Y-15033198D01*
X15320663Y-15033198D02*
X15330187Y-15023674D01*
X15330187Y-15023674D02*
X15349234Y-15014150D01*
X15349234Y-15014150D02*
X15377806Y-15014150D01*
X15377806Y-15014150D02*
X15396853Y-15023674D01*
X15396853Y-15023674D02*
X15406377Y-15033198D01*
X15406377Y-15033198D02*
X15415901Y-15052246D01*
X15415901Y-15052246D02*
X15415901Y-15109388D01*
X15415901Y-15109388D02*
X15406377Y-15128436D01*
X15406377Y-15128436D02*
X15396853Y-15137960D01*
X15396853Y-15137960D02*
X15377806Y-15147484D01*
X15377806Y-15147484D02*
X15349234Y-15147484D01*
X15530187Y-15147484D02*
X15511139Y-15137960D01*
X15511139Y-15137960D02*
X15501615Y-15118912D01*
X15501615Y-15118912D02*
X15501615Y-14947484D01*
X15682568Y-15137960D02*
X15663520Y-15147484D01*
X15663520Y-15147484D02*
X15625425Y-15147484D01*
X15625425Y-15147484D02*
X15606377Y-15137960D01*
X15606377Y-15137960D02*
X15596853Y-15118912D01*
X15596853Y-15118912D02*
X15596853Y-15042722D01*
X15596853Y-15042722D02*
X15606377Y-15023674D01*
X15606377Y-15023674D02*
X15625425Y-15014150D01*
X15625425Y-15014150D02*
X15663520Y-15014150D01*
X15663520Y-15014150D02*
X15682568Y-15023674D01*
X15682568Y-15023674D02*
X15692091Y-15042722D01*
X15692091Y-15042722D02*
X15692091Y-15061769D01*
X15692091Y-15061769D02*
X15596853Y-15080817D01*
X15768282Y-15137960D02*
X15787330Y-15147484D01*
X15787330Y-15147484D02*
X15825425Y-15147484D01*
X15825425Y-15147484D02*
X15844472Y-15137960D01*
X15844472Y-15137960D02*
X15853996Y-15118912D01*
X15853996Y-15118912D02*
X15853996Y-15109388D01*
X15853996Y-15109388D02*
X15844472Y-15090341D01*
X15844472Y-15090341D02*
X15825425Y-15080817D01*
X15825425Y-15080817D02*
X15796853Y-15080817D01*
X15796853Y-15080817D02*
X15777806Y-15071293D01*
X15777806Y-15071293D02*
X15768282Y-15052246D01*
X15768282Y-15052246D02*
X15768282Y-15042722D01*
X15768282Y-15042722D02*
X15777806Y-15023674D01*
X15777806Y-15023674D02*
X15796853Y-15014150D01*
X15796853Y-15014150D02*
X15825425Y-15014150D01*
X15825425Y-15014150D02*
X15844472Y-15023674D01*
X16092092Y-15071293D02*
X16244473Y-15071293D01*
X16168282Y-15147484D02*
X16168282Y-14995103D01*
X16482568Y-14966531D02*
X16492092Y-14957008D01*
X16492092Y-14957008D02*
X16511139Y-14947484D01*
X16511139Y-14947484D02*
X16558758Y-14947484D01*
X16558758Y-14947484D02*
X16577806Y-14957008D01*
X16577806Y-14957008D02*
X16587330Y-14966531D01*
X16587330Y-14966531D02*
X16596853Y-14985579D01*
X16596853Y-14985579D02*
X16596853Y-15004627D01*
X16596853Y-15004627D02*
X16587330Y-15033198D01*
X16587330Y-15033198D02*
X16473044Y-15147484D01*
X16473044Y-15147484D02*
X16596853Y-15147484D01*
X16825425Y-15137960D02*
X16844473Y-15147484D01*
X16844473Y-15147484D02*
X16882568Y-15147484D01*
X16882568Y-15147484D02*
X16901616Y-15137960D01*
X16901616Y-15137960D02*
X16911139Y-15118912D01*
X16911139Y-15118912D02*
X16911139Y-15109388D01*
X16911139Y-15109388D02*
X16901616Y-15090341D01*
X16901616Y-15090341D02*
X16882568Y-15080817D01*
X16882568Y-15080817D02*
X16853996Y-15080817D01*
X16853996Y-15080817D02*
X16834949Y-15071293D01*
X16834949Y-15071293D02*
X16825425Y-15052246D01*
X16825425Y-15052246D02*
X16825425Y-15042722D01*
X16825425Y-15042722D02*
X16834949Y-15023674D01*
X16834949Y-15023674D02*
X16853996Y-15014150D01*
X16853996Y-15014150D02*
X16882568Y-15014150D01*
X16882568Y-15014150D02*
X16901616Y-15023674D01*
X17025425Y-15147484D02*
X17006377Y-15137960D01*
X17006377Y-15137960D02*
X16996854Y-15118912D01*
X16996854Y-15118912D02*
X16996854Y-14947484D01*
X17130187Y-15147484D02*
X17111139Y-15137960D01*
X17111139Y-15137960D02*
X17101616Y-15128436D01*
X17101616Y-15128436D02*
X17092092Y-15109388D01*
X17092092Y-15109388D02*
X17092092Y-15052246D01*
X17092092Y-15052246D02*
X17101616Y-15033198D01*
X17101616Y-15033198D02*
X17111139Y-15023674D01*
X17111139Y-15023674D02*
X17130187Y-15014150D01*
X17130187Y-15014150D02*
X17158758Y-15014150D01*
X17158758Y-15014150D02*
X17177806Y-15023674D01*
X17177806Y-15023674D02*
X17187330Y-15033198D01*
X17187330Y-15033198D02*
X17196854Y-15052246D01*
X17196854Y-15052246D02*
X17196854Y-15109388D01*
X17196854Y-15109388D02*
X17187330Y-15128436D01*
X17187330Y-15128436D02*
X17177806Y-15137960D01*
X17177806Y-15137960D02*
X17158758Y-15147484D01*
X17158758Y-15147484D02*
X17130187Y-15147484D01*
X17253997Y-15014150D02*
X17330187Y-15014150D01*
X17282568Y-14947484D02*
X17282568Y-15118912D01*
X17282568Y-15118912D02*
X17292092Y-15137960D01*
X17292092Y-15137960D02*
X17311139Y-15147484D01*
X17311139Y-15147484D02*
X17330187Y-15147484D01*
X17387330Y-15137960D02*
X17406377Y-15147484D01*
X17406377Y-15147484D02*
X17444473Y-15147484D01*
X17444473Y-15147484D02*
X17463520Y-15137960D01*
X17463520Y-15137960D02*
X17473044Y-15118912D01*
X17473044Y-15118912D02*
X17473044Y-15109388D01*
X17473044Y-15109388D02*
X17463520Y-15090341D01*
X17463520Y-15090341D02*
X17444473Y-15080817D01*
X17444473Y-15080817D02*
X17415901Y-15080817D01*
X17415901Y-15080817D02*
X17396854Y-15071293D01*
X17396854Y-15071293D02*
X17387330Y-15052246D01*
X17387330Y-15052246D02*
X17387330Y-15042722D01*
X17387330Y-15042722D02*
X17396854Y-15023674D01*
X17396854Y-15023674D02*
X17415901Y-15014150D01*
X17415901Y-15014150D02*
X17444473Y-15014150D01*
X17444473Y-15014150D02*
X17463520Y-15023674D01*
X17539711Y-15223674D02*
X17549235Y-15214150D01*
X17549235Y-15214150D02*
X17568282Y-15185579D01*
X17568282Y-15185579D02*
X17577806Y-15166531D01*
X17577806Y-15166531D02*
X17587330Y-15137960D01*
X17587330Y-15137960D02*
X17596854Y-15090341D01*
X17596854Y-15090341D02*
X17596854Y-15052246D01*
X17596854Y-15052246D02*
X17587330Y-15004627D01*
X17587330Y-15004627D02*
X17577806Y-14976055D01*
X17577806Y-14976055D02*
X17568282Y-14957008D01*
X17568282Y-14957008D02*
X17549235Y-14928436D01*
X17549235Y-14928436D02*
X17539711Y-14918912D01*
M02*
