M48
; DRILL file {KiCad 7.0.9} date Thu Apr 10 13:05:30 2025
; FORMAT={-:-/ absolute / metric / decimal}
; #@! TF.CreationDate,2025-04-10T13:05:30+02:00
; #@! TF.GenerationSoftware,Kicad,Pcbnew,7.0.9
; #@! TF.FileFunction,Plated,1,2,PTH
FMAT,2
METRIC
; #@! TA.AperFunction,Plated,PTH,ViaDrill
T1C0.400
; #@! TA.AperFunction,Plated,PTH,ComponentDrill
T2C0.400
; #@! TA.AperFunction,Plated,PTH,ComponentDrill
T3C0.800
; #@! TA.AperFunction,Plated,PTH,ComponentDrill
T4C0.900
; #@! TA.AperFunction,Plated,PTH,ComponentDrill
T5C1.000
; #@! TA.AperFunction,Plated,PTH,ComponentDrill
T6C1.100
; #@! TA.AperFunction,Plated,PTH,ComponentDrill
T7C1.500
%
G90
G05
T1
X145.796Y-73.66
X150.876Y-73.66
X154.686Y-90.17
X157.226Y-95.25
X167.386Y-92.71
X167.386Y-95.25
T3
X167.386Y-102.87
X167.386Y-115.57
X175.006Y-102.87
X175.006Y-115.57
T4
X116.586Y-120.65
X119.126Y-120.65
X136.906Y-120.65
X139.446Y-120.65
T5
X114.046Y-75.645
X114.046Y-80.645
X124.206Y-90.17
X126.746Y-90.17
X128.546Y-75.645
X128.546Y-78.145
X128.546Y-80.645
X129.286Y-90.17
X131.826Y-90.17
X147.066Y-77.47
X147.066Y-80.01
X147.066Y-82.55
X147.066Y-85.09
X147.066Y-87.63
X147.066Y-90.17
X147.066Y-92.71
X147.066Y-95.25
X147.066Y-97.79
X147.066Y-100.33
X147.066Y-102.87
X147.066Y-105.41
X147.066Y-107.95
X147.066Y-110.49
X147.066Y-113.03
X162.306Y-77.47
X162.306Y-80.01
X162.306Y-82.55
X162.306Y-85.09
X162.306Y-87.63
X162.306Y-90.17
X162.306Y-92.71
X162.306Y-95.25
X162.306Y-97.79
X162.306Y-100.33
X162.306Y-102.87
X162.306Y-105.41
X162.306Y-107.95
X162.306Y-110.49
X162.306Y-113.03
X172.466Y-87.65
X172.466Y-95.25
T6
X124.691Y-118.69
X124.691Y-123.19
X131.191Y-118.69
X131.191Y-123.19
T2
G00X167.386Y-79.51
M15
G01X167.386Y-80.51
M16
G05
G00X172.886Y-75.01
M15
G01X171.886Y-75.01
M16
G05
G00X177.386Y-80.51
M15
G01X177.386Y-79.51
M16
G05
T7
G00X121.696Y-72.545
M15
G01X120.396Y-72.545
M16
G05
G00X121.696Y-83.745
M15
G01X120.396Y-83.745
M16
G05
T0
M30
